<?xml version="1.0" encoding="utf-8"?>
<!-- Generator: Adobe Illustrator 26.4.1, SVG Export Plug-In . SVG Version: 6.00 Build 0)  -->
<svg version="1.1" id="Capa_1" xmlns="http://www.w3.org/2000/svg" xmlns:xlink="http://www.w3.org/1999/xlink" x="0px" y="0px"
	 viewBox="0 0 100 100" style="enable-background:new 0 0 100 100;" xml:space="preserve">
<style type="text/css">
	.st0{fill:#FFFFFF;}
</style>
<g id="m68qtl_00000083069529606538881040000012300947827924320658_">
	<g>
		<path d="M5.98,94.6c0-11.64,0-23.13,0-34.76c-1.33,0-2.54,0-3.82,0c0-3.92,0-7.7,0-11.65c2.53,0,5.06,0,7.67,0
			c0-1.74-0.03-3.31,0.01-4.87c0.06-2.23-0.1-4.47,1.22-6.53c1.29-2.02,3.18-3,5.35-3.62c2.08-0.6,4.17-1.18,6.27-1.71
			c0.68-0.17,0.85-0.5,0.86-1.16c0.03-1.46-0.08-2.72-1.26-3.92c-1.74-1.77-2.54-4.11-2.61-6.62c-0.05-1.7-0.07-3.41,0-5.11
			C19.93,8.37,25.2,3.49,31.58,3.59c6.21,0.1,11.33,5.23,11.4,11.47c0.02,1.96,0.08,3.93-0.15,5.87c-0.28,2.43-1.43,4.52-3.15,6.28
			c-0.46,0.47-0.86,3.37-0.49,3.87c0.15,0.2,0.5,0.29,0.77,0.36c2.21,0.64,4.42,1.24,6.62,1.89c3.24,0.95,5.46,2.86,5.99,6.38
			c0.03,0.2,0.1,0.4,0.17,0.67c2.44,0,4.86,0,7.29,0c0.21,0,0.43-0.06,0.64-0.02c1.96,0.38,3.42-0.29,4.77-1.79
			c2.65-2.93,5.49-5.69,8.28-8.56c0.03,0.06,0.01-0.04-0.04-0.07c-5.05-2.29-7.47-6.24-7.39-11.75c0.02-1.45-0.03-2.91,0.15-4.34
			C67.2,7.68,72.5,3.27,78.7,3.6c6.05,0.32,10.89,5.35,11.02,11.49c0.03,1.74,0.06,3.5-0.09,5.23c-0.24,2.86-1.57,5.25-3.64,7.35
			c3.48,1.98,3.95,5.21,3.78,8.78c2.58,0,5.03,0,7.69,0c0,0.58,0,1.03,0,1.47c0,7.88,0.01,15.76,0,23.65
			c-0.01,6.54-4.1,11.75-10.49,13.37c-0.28,0.07-0.56,0.17-0.95,0.29c0.65,6.4,1.29,12.79,1.95,19.27c-3.9,0-7.75,0-11.73,0
			c-0.34-3.28-0.69-6.57-1.02-9.86c-0.28-2.8-0.52-5.6-0.85-8.39c-0.04-0.33-0.47-0.86-0.73-0.87c-3.02-0.06-6.03-0.04-9.19-0.04
			c0,6.43,0,12.75,0,19.25c-2.12,0-4.1,0.02-6.09,0c-1.65-0.02-3.63,0.47-4.87-0.27c-1.18-0.71-1.77-2.64-2.28-4.16
			c-0.88-2.66-2.45-3.41-5.27-3.32c-7.96,0.24-15.93,0.1-23.9,0.06c-0.9,0-1.36,0.28-1.74,1.08c-0.92,1.97-1.9,3.9-2.92,5.82
			c-0.18,0.34-0.64,0.75-0.97,0.76C13.01,94.62,9.6,94.6,5.98,94.6z M10.03,59.86c0,10.35,0,20.58,0,30.91
			c1.27,0,2.47,0.07,3.64-0.04c0.44-0.04,1.02-0.39,1.22-0.76c1.08-1.98,2.08-4,3.05-6.03c0.32-0.68,0.73-0.9,1.47-0.9
			c10.52,0.02,21.04,0.03,31.55,0c0.82,0,1.19,0.31,1.53,1c0.95,2,1.96,3.97,2.99,5.92c0.17,0.33,0.54,0.75,0.84,0.77
			c1.34,0.08,2.7,0.04,4.09,0.04c0-10.39,0-20.63,0-30.91C43.6,59.86,26.87,59.86,10.03,59.86z M48.68,40.28
			c-0.53-1.67-1.43-2.77-3.09-3.19c-2.26-0.58-4.49-1.24-6.76-1.78c-0.41-0.1-1.03,0.12-1.36,0.41c-1.53,1.31-3.08,2.53-5.19,2.77
			c-2.74,0.3-5-0.67-6.85-2.64c-0.55-0.59-1.06-0.8-1.87-0.55c-1.78,0.56-3.59,0.99-5.39,1.5c-3.77,1.08-4.41,1.97-4.37,5.85
			c0.02,1.81,0,3.62,0,5.41c9.27,0,18.32,0,27.37,0C40.85,42.55,42.19,41.15,48.68,40.28z M85.65,35.3
			c-1.33,1.42-2.65,2.9-4.04,4.31c-3.3,3.32-6.59,6.65-9.97,9.89c-1.05,1-1.47,2.02-1.4,3.45c0.11,2.24,0.03,4.49,0.03,6.91
			c-2.03,0-3.91,0-5.77,0c0,1.35,0,2.52,0,3.81c0.54,0,1,0,1.46,0c4.43,0,8.86,0,13.29,0c4.25,0,6.54-2.28,6.53-6.55
			c-0.02-7.07-0.06-14.13-0.1-21.2C85.68,35.66,85.66,35.42,85.65,35.3z M23.54,17.13c0,0.72-0.01,1.45,0,2.17
			c0.09,3.9,3.17,7.19,7.01,7.52c4.06,0.34,7.75-2.32,8.33-6.29c0.3-2.08,0.32-4.27,0.07-6.36c-0.49-4.06-4.16-6.97-8.04-6.67
			c-4.26,0.33-7.33,3.58-7.37,7.84C23.54,15.93,23.54,16.53,23.54,17.13z M70.19,17.06c0.03,0,0.05,0,0.08,0c0,0.77-0.02,1.53,0,2.3
			c0.13,4.06,3.43,7.38,7.44,7.47c4.26,0.1,7.72-2.93,8-7.12c0.11-1.65,0.11-3.33,0.01-4.98c-0.24-3.96-3.25-6.89-7.29-7.23
			c-3.61-0.3-7.15,2.32-7.97,6.01C70.22,14.66,70.28,15.88,70.19,17.06z M66.24,52.15c-20.11,0-40.09,0-60.14,0
			c0,1.26,0,2.48,0,3.72c20.09,0,40.09,0,60.14,0C66.24,54.61,66.24,53.43,66.24,52.15z M64.48,71.4c6.71,0,13.27,0.13,19.82-0.04
			c5.36-0.14,9.25-4.4,9.27-9.76c0.02-6.64,0.01-13.29,0-19.93c0-0.37-0.05-0.74-0.07-1.08c-1.28,0-2.47,0-3.66,0
			c-0.05,0.8-0.12,1.43-0.12,2.07c-0.01,4.9,0.01,9.79,0,14.69c-0.01,6.05-4.13,10.19-10.17,10.21c-4.51,0.01-9.03,0-13.54,0
			c-0.5,0-0.99,0-1.53,0C64.48,68.92,64.48,70.09,64.48,71.4z M56.9,48.17c0,0,0,0.01,0,0.01c3.11,0,6.22-0.03,9.33,0.02
			c0.88,0.01,1.51-0.25,2.13-0.87c4.25-4.29,8.54-8.55,12.82-12.81c0.9-0.89,0.94-2.21,0.09-3.08c-0.86-0.88-2.13-0.94-3.08-0.01
			c-3.6,3.55-7.21,7.1-10.73,10.74c-1.36,1.4-2.67,2.28-4.8,2.2c-5.06-0.19-10.13-0.06-15.2-0.07c-1.11,0-2.06,0.25-2.42,1.44
			c-0.39,1.33,0.54,2.4,2.15,2.42C50.43,48.19,53.66,48.17,56.9,48.17z M79.78,90.71c1.36,0,2.54,0,3.84,0
			c-0.52-5.14-1.03-10.19-1.54-15.26c-1.34,0-2.55,0-3.84,0C78.76,80.58,79.27,85.61,79.78,90.71z M27.46,30.47
			c-0.48,1.75,0.61,2.82,2.04,3.66c1.47,0.86,3.09,0.57,4.68-0.77c1-0.85,1.25-1.9,0.95-2.89C32.5,30.47,30.04,30.47,27.46,30.47z"
			/>
		<path class="st0" d="M10.03,59.86c16.84,0,33.57,0,50.38,0c0,10.28,0,20.52,0,30.91c-1.39,0-2.75,0.05-4.09-0.04
			c-0.3-0.02-0.67-0.44-0.84-0.77c-1.03-1.96-2.04-3.93-2.99-5.92c-0.33-0.7-0.71-1.01-1.53-1c-10.52,0.03-21.04,0.03-31.55,0
			c-0.74,0-1.15,0.22-1.47,0.9c-0.97,2.03-1.97,4.05-3.05,6.03c-0.2,0.38-0.79,0.73-1.22,0.76c-1.18,0.11-2.37,0.04-3.64,0.04
			C10.03,80.45,10.03,70.21,10.03,59.86z"/>
		<path class="st0" d="M48.68,40.28c-6.48,0.87-7.83,2.27-7.5,7.78c-9.05,0-18.1,0-27.37,0c0-1.79,0.02-3.6,0-5.41
			c-0.05-3.89,0.6-4.78,4.37-5.85c1.79-0.51,3.61-0.94,5.39-1.5c0.81-0.25,1.32-0.04,1.87,0.55c1.85,1.97,4.11,2.94,6.85,2.64
			c2.1-0.23,3.66-1.45,5.19-2.77c0.34-0.29,0.96-0.51,1.36-0.41c2.27,0.54,4.5,1.2,6.76,1.78C47.24,37.51,48.15,38.61,48.68,40.28z"
			/>
		<path class="st0" d="M85.65,35.3c0.01,0.12,0.03,0.36,0.03,0.6c0.04,7.07,0.08,14.13,0.1,21.2c0.01,4.27-2.29,6.55-6.53,6.55
			c-4.43,0-8.86,0-13.29,0c-0.46,0-0.92,0-1.46,0c0-1.28,0-2.46,0-3.81c1.86,0,3.74,0,5.77,0c0-2.42,0.08-4.67-0.03-6.91
			c-0.07-1.43,0.35-2.45,1.4-3.45c3.39-3.23,6.68-6.56,9.97-9.89C83,38.2,84.32,36.72,85.65,35.3z"/>
		<path class="st0" d="M23.54,17.13c0-0.6-0.01-1.19,0-1.79c0.04-4.25,3.11-7.51,7.37-7.84c3.88-0.3,7.55,2.61,8.04,6.67
			c0.25,2.09,0.23,4.28-0.07,6.36c-0.58,3.97-4.27,6.63-8.33,6.29c-3.84-0.32-6.92-3.62-7.01-7.52
			C23.53,18.58,23.54,17.85,23.54,17.13z"/>
		<path class="st0" d="M70.19,17.06c0.08-1.19,0.02-2.4,0.27-3.55c0.82-3.69,4.36-6.31,7.97-6.01c4.04,0.34,7.04,3.27,7.29,7.23
			c0.1,1.65,0.1,3.33-0.01,4.98c-0.29,4.19-3.74,7.22-8,7.12c-4.01-0.09-7.31-3.4-7.44-7.47c-0.02-0.77,0-1.53,0-2.3
			C70.25,17.07,70.22,17.06,70.19,17.06z"/>
		<path class="st0" d="M66.24,52.15c0,1.29,0,2.46,0,3.72c-20.06,0-40.05,0-60.14,0c0-1.24,0-2.45,0-3.72
			C26.15,52.15,46.12,52.15,66.24,52.15z"/>
		<path class="st0" d="M64.48,71.4c0-1.3,0-2.48,0-3.84c0.53,0,1.03,0,1.53,0c4.51,0,9.03,0.01,13.54,0
			c6.04-0.02,10.17-4.16,10.17-10.21c0.01-4.9-0.01-9.79,0-14.69c0-0.64,0.07-1.27,0.12-2.07c1.19,0,2.38,0,3.66,0
			c0.02,0.33,0.07,0.71,0.07,1.08c0,6.64,0.02,13.29,0,19.93c-0.02,5.37-3.91,9.63-9.27,9.76C77.75,71.53,71.19,71.4,64.48,71.4z"/>
		<path class="st0" d="M56.9,48.17c-3.24,0-6.47,0.03-9.71-0.01c-1.61-0.02-2.54-1.09-2.15-2.42c0.35-1.19,1.31-1.44,2.42-1.44
			c5.07,0.01,10.14-0.12,15.2,0.07c2.13,0.08,3.44-0.8,4.8-2.2c3.52-3.64,7.12-7.19,10.73-10.74c0.95-0.93,2.22-0.87,3.08,0.01
			c0.85,0.87,0.8,2.19-0.09,3.08c-4.28,4.26-8.56,8.52-12.82,12.81c-0.62,0.63-1.25,0.89-2.13,0.87c-3.11-0.05-6.22-0.02-9.33-0.02
			C56.9,48.17,56.9,48.17,56.9,48.17z"/>
		<path class="st0" d="M79.78,90.71c-0.51-5.1-1.02-10.13-1.54-15.26c1.29,0,2.5,0,3.84,0c0.51,5.07,1.02,10.12,1.54,15.26
			C82.32,90.71,81.14,90.71,79.78,90.71z"/>
		<path class="st0" d="M27.46,30.47c2.58,0,5.04,0,7.67,0c0.3,0.98,0.05,2.03-0.95,2.89c-1.58,1.34-3.2,1.63-4.68,0.77
			C28.07,33.28,26.98,32.22,27.46,30.47z"/>
	</g>
</g>
</svg>
