<?xml version="1.0" encoding="utf-8"?>
<!-- Generator: Adobe Illustrator 26.4.1, SVG Export Plug-In . SVG Version: 6.00 Build 0)  -->
<svg version="1.1" id="Capa_1" xmlns="http://www.w3.org/2000/svg" xmlns:xlink="http://www.w3.org/1999/xlink" x="0px" y="0px"
	 viewBox="0 0 100 100" style="enable-background:new 0 0 100 100;" xml:space="preserve">
<style type="text/css">
	.st0{fill:#FFFFFF;}
	.st1{fill:#1D1D1B;}
</style>
<g>
	<path class="st0" d="M96.46,96.46L96.46,96.46c-1.38,1.38-3.61,1.38-4.98,0L77.62,82.6c-1.38-1.38-1.38-3.61,0-4.98v0
		c1.38-1.38,3.61-1.38,4.98,0l13.86,13.86C97.83,92.85,97.83,95.08,96.46,96.46z"/>
	<path class="st1" d="M93.97,100c-0.92,0-1.85-0.35-2.55-1.06L75.13,82.66c-0.68-0.68-1.06-1.59-1.06-2.55
		c0-0.96,0.38-1.87,1.06-2.55l2.42-2.42c1.41-1.41,3.7-1.41,5.11,0l16.28,16.28C99.62,92.1,100,93,100,93.97
		c0,0.96-0.38,1.87-1.06,2.55l-2.42,2.42C95.82,99.65,94.89,100,93.97,100z M80.11,77.68l-2.43,2.42L93.96,96.4l2.43-2.42
		c0,0,0,0,0,0L80.11,77.68z"/>
</g>
<g>
	<path class="st0" d="M78.04,26.25v51.49c0,2.41-1.96,4.37-4.37,4.37h-53c-2.41,0-4.37-1.96-4.37-4.37V5.93
		c0-2.41,1.96-4.37,4.37-4.37h34.15c1.68,0,3.28,0.7,4.41,1.94l17.33,18.95C77.52,23.49,78.04,24.84,78.04,26.25z"/>
	<path class="st1" d="M73.68,83.9h-53c-3.4,0-6.17-2.77-6.17-6.17V5.93c0-3.4,2.77-6.17,6.17-6.17h34.15c2.18,0,4.27,0.92,5.74,2.53
		L77.9,21.24c1.25,1.37,1.95,3.15,1.95,5.01v51.49C79.84,81.14,77.08,83.9,73.68,83.9z M20.68,3.37c-1.41,0-2.57,1.15-2.57,2.57
		v71.8c0,1.41,1.15,2.57,2.57,2.57h53c1.41,0,2.57-1.15,2.57-2.57V26.25c0-0.96-0.36-1.87-1-2.58L57.91,4.73
		C57.12,3.86,56,3.37,54.83,3.37H20.68z"/>
</g>
<g>
	<path d="M46.19,37.19c-6.84,0-13.68,0-20.53,0c-1.35,0-2.01-0.46-2.11-1.45c-0.1-0.92,0.42-1.66,1.33-1.85
		c0.23-0.05,0.48-0.04,0.72-0.04c13.74,0,27.49,0,41.23,0c1.35,0,2.18,0.71,2.1,1.78c-0.06,0.91-0.74,1.54-1.76,1.57
		c-1.29,0.03-2.58,0.01-3.87,0.01C57.59,37.19,51.89,37.19,46.19,37.19z"/>
</g>
<g>
	<path d="M46.18,43.47c6.75,0,13.5,0,20.26,0c0.33,0,0.66-0.01,0.99,0.02c0.85,0.09,1.44,0.7,1.49,1.53
		c0.06,0.81-0.46,1.53-1.28,1.72c-0.26,0.06-0.54,0.06-0.8,0.06c-13.74,0-27.49,0-41.23,0c-1.39,0-2.12-0.65-2.05-1.79
		c0.05-0.83,0.56-1.4,1.39-1.5c0.45-0.05,0.9-0.04,1.35-0.04C32.91,43.47,39.55,43.47,46.18,43.47z"/>
</g>
<g>
	<path d="M37.27,62.66c3.9,0,7.8-0.02,11.7,0.03c0.55,0.01,1.22,0.21,1.61,0.57c0.93,0.85,0.44,2.38-0.79,2.67
		c-0.32,0.08-0.65,0.09-0.98,0.09c-7.71,0-15.42,0-23.13,0c-0.15,0-0.3,0-0.45-0.01c-1.1-0.09-1.7-0.7-1.69-1.71
		c0.01-0.96,0.68-1.63,1.76-1.64c1.92-0.02,3.84-0.01,5.76-0.01C33.13,62.66,35.2,62.66,37.27,62.66z"/>
</g>
<g>
	<path d="M37.29,53.08c3.93,0,7.86,0,11.79,0c1.25,0,1.92,0.57,1.94,1.61c0.02,1.1-0.65,1.68-1.96,1.68c-7.86,0-15.71,0-23.57,0
		c-1.29,0-1.97-0.6-1.95-1.7c0.02-1.02,0.72-1.59,1.96-1.6C29.43,53.08,33.36,53.08,37.29,53.08z"/>
</g>
<g>
	<circle class="st0" cx="70.1" cy="69.39" r="14.65"/>
	<path class="st1" d="M70.1,85.84c-9.07,0-16.45-7.38-16.45-16.45c0-9.07,7.38-16.45,16.45-16.45s16.45,7.38,16.45,16.45
		C86.55,78.46,79.17,85.84,70.1,85.84z M70.1,56.54c-7.09,0-12.85,5.77-12.85,12.85c0,7.09,5.77,12.85,12.85,12.85
		s12.85-5.77,12.85-12.85C82.95,62.3,77.18,56.54,70.1,56.54z"/>
</g>
<path d="M40.3,12.13c-1.24,0.2-2.43,0.38-3.53,0.55c-0.43-0.54-0.8-1.01-1.18-1.48c-0.07,0.03-0.15,0.06-0.22,0.09
	c0,0.87-0.02,1.74,0.02,2.6c0.01,0.12,0.27,0.27,0.44,0.33c0.68,0.25,1.38,0.43,2.04,0.71c2.11,0.87,2.95,2.16,2.85,4.29
	c-0.08,1.75-1.46,3.47-3.29,4.02c-0.64,0.19-1.31,0.27-2.06,0.41c0,0.55,0,1.14,0,1.78c-0.49,0-0.9,0-1.41,0c0-0.59,0-1.2,0-1.84
	c-2.87-0.24-4.97-1.33-5.55-4.41c1.33-0.16,2.64-0.31,3.99-0.47c0.18,0.96,0.49,1.76,1.54,2.17c0-1.14,0.01-2.22-0.02-3.3
	c0-0.12-0.27-0.27-0.44-0.33c-0.65-0.24-1.33-0.43-1.98-0.68c-1.62-0.63-2.5-1.92-2.52-3.65c-0.02-1.69,0.91-3.19,2.47-3.79
	c0.77-0.3,1.61-0.43,2.46-0.65c0.02-0.24,0.05-0.54,0.08-0.86c0.44,0,0.85,0,1.32,0c0.03,0.3,0.06,0.59,0.09,0.95
	C37.71,8.77,39.67,9.49,40.3,12.13z M35.39,20.92c1.01-0.15,1.67-0.8,1.64-1.58c-0.03-0.74-0.72-1.36-1.64-1.46
	C35.39,18.89,35.39,19.91,35.39,20.92z M33.9,13.65c0-0.85,0-1.64,0-2.48c-0.69,0.17-1.1,0.52-1.15,1.18
	C32.71,12.98,33.09,13.4,33.9,13.65z"/>
<path d="M64.32,68.87c1.01,1.08,2.02,2.17,3.05,3.27c3.06-3.06,6.03-6.04,9.05-9.07c0.72,0.8,1.35,1.49,2.09,2.32
	c-0.54,0.49-1.2,1.05-1.81,1.66c-2.63,2.62-5.25,5.25-7.88,7.87c-1.04,1.04-1.68,1.03-2.73-0.02c-1.31-1.31-2.62-2.62-3.97-3.96
	C62.84,70.27,63.51,69.64,64.32,68.87z"/>
</svg>
