<?xml version="1.0" encoding="utf-8"?>
<!-- Generator: Adobe Illustrator 26.4.1, SVG Export Plug-In . SVG Version: 6.00 Build 0)  -->
<svg version="1.1" id="Capa_1" xmlns="http://www.w3.org/2000/svg" xmlns:xlink="http://www.w3.org/1999/xlink" x="0px" y="0px"
	 viewBox="0 0 100 100" style="enable-background:new 0 0 100 100;" xml:space="preserve">
<style type="text/css">
	.st0{fill:#FFFFFF;}
</style>
<g id="wWF1UC_00000054969361214478250250000011273220476515722636_">
	<g>
		<path d="M86.25,62.71c0,10.45-0.07,20.91,0.04,31.36c0.03,3.24-2.38,5.94-5.89,5.93c-19.25-0.07-38.5-0.03-57.75-0.03
			c-3.6,0-5.84-2.24-5.84-5.84c0-18.39-0.01-36.78,0.02-55.17c0-0.88-0.22-1.31-1.08-1.67C7.95,34.02,3.1,25.82,4.01,17.59
			c0.98-8.85,7.4-15.8,15.98-17.3c7.96-1.39,15.94,2.26,20.06,9.23c0.36,0.62,0.76,0.8,1.44,0.79c8-0.02,16-0.01,24-0.02
			c1.89,0,3.49,0.64,4.81,1.96c4.67,4.65,9.34,9.32,14,13.99c1.4,1.41,1.97,3.12,1.96,5.11C86.24,41.81,86.25,52.26,86.25,62.71z
			 M20.41,38.7c-0.02,0.39-0.05,0.67-0.05,0.95c0,18.13,0,36.26,0,54.39c0,1.75,0.67,2.4,2.44,2.4c19.12,0,38.24,0,57.36,0
			c1.93,0,2.59-0.65,2.59-2.57c0-19.95,0-39.9,0-59.84c0-0.34,0-0.67,0-1.09c-6.12,0-12.1,0-18.19,0c0-6.4,0-12.72,0-19.05
			c-7.56,0-15.01,0-22.53,0c1.71,6.79,0.57,12.97-4.03,18.27C33.4,37.47,27.43,39.45,20.41,38.7z M8.13,19.39
			c-0.02,8.33,6.78,15.25,15.02,15.28c8.53,0.03,15.41-6.71,15.44-15.14c0.03-8.48-6.77-15.31-15.25-15.33
			C14.98,4.2,8.15,11.02,8.13,19.39z M81.92,29.35c-4.59-4.58-9.2-9.19-13.72-13.72c0,4.43,0,9.05,0,13.72
			C72.87,29.35,77.47,29.35,81.92,29.35z"/>
		<path class="st0" d="M20.41,38.7c7.03,0.75,12.99-1.23,17.6-6.53c4.6-5.3,5.74-11.48,4.03-18.27c7.52,0,14.97,0,22.53,0
			c0,6.33,0,12.65,0,19.05c6.09,0,12.07,0,18.19,0c0,0.42,0,0.76,0,1.09c0,19.95,0,39.9,0,59.84c0,1.92-0.66,2.57-2.59,2.57
			c-19.12,0-38.24,0-57.36,0c-1.77,0-2.44-0.65-2.44-2.4c0-18.13,0-36.26,0-54.39C20.36,39.37,20.39,39.09,20.41,38.7z M77.07,70.95
			c-0.87-3.6-3.55-4.59-6.7-4.87c-0.05-0.5-0.09-0.9-0.12-1.31c-0.64,0-1.2,0-1.8,0c-0.04,0.44-0.08,0.84-0.11,1.17
			c-1.17,0.3-2.31,0.48-3.37,0.88c-2.13,0.82-3.41,2.86-3.38,5.18c0.03,2.37,1.24,4.14,3.45,4.99c0.89,0.34,1.81,0.6,2.7,0.93
			c0.23,0.09,0.6,0.29,0.6,0.46c0.05,1.48,0.03,2.95,0.03,4.52c-1.43-0.56-1.86-1.66-2.11-2.96c-1.85,0.22-3.63,0.43-5.45,0.64
			c0.8,4.22,3.67,5.71,7.59,6.04c0,0.88,0,1.71,0,2.52c0.7,0,1.26,0,1.93,0c0-0.87,0-1.68,0-2.43c1.02-0.2,1.94-0.3,2.81-0.57
			c2.5-0.75,4.38-3.09,4.49-5.49c0.14-2.91-1.01-4.67-3.9-5.86c-0.91-0.37-1.87-0.63-2.79-0.97c-0.23-0.09-0.6-0.29-0.61-0.45
			c-0.05-1.18-0.03-2.37-0.03-3.56c0.1-0.04,0.2-0.09,0.3-0.13c0.51,0.65,1.03,1.3,1.61,2.03C73.75,71.47,75.37,71.21,77.07,70.95z
			 M51.51,49.94c6.05,0,12.1,0,18.16,0c1.37,0,2.74,0.02,4.11-0.01c1.09-0.03,1.8-0.7,1.87-1.66c0.08-1.13-0.8-1.89-2.23-1.89
			c-14.59,0-29.18,0-43.77,0c-0.25,0-0.51-0.01-0.76,0.05c-0.96,0.21-1.51,0.99-1.41,1.97c0.11,1.05,0.81,1.54,2.24,1.54
			C36.98,49.94,44.25,49.94,51.51,49.94z M51.5,56.6c-7.04,0-14.08,0-21.12,0c-0.48,0-0.96-0.01-1.43,0.04
			c-0.88,0.1-1.42,0.71-1.48,1.59c-0.07,1.21,0.71,1.9,2.18,1.9c14.59,0,29.18,0,43.77,0c0.29,0,0.58,0.01,0.85-0.06
			c0.87-0.21,1.42-0.97,1.36-1.83c-0.06-0.88-0.68-1.53-1.58-1.63c-0.35-0.04-0.7-0.03-1.05-0.03C65.83,56.6,58.67,56.6,51.5,56.6z
			 M42.04,76.97c-2.2,0-4.39,0-6.59,0c-2.04,0-4.08-0.02-6.11,0.01c-1.14,0.01-1.85,0.72-1.86,1.74c-0.01,1.07,0.62,1.72,1.79,1.81
			c0.16,0.01,0.32,0.01,0.48,0.01c8.18,0,16.37,0,24.55,0c0.35,0,0.71-0.01,1.04-0.09c1.3-0.31,1.82-1.93,0.84-2.84
			c-0.41-0.38-1.13-0.6-1.71-0.61C50.32,76.95,46.18,76.97,42.04,76.97z M42.06,66.81c-4.17,0-8.34,0-12.51,0
			c-1.32,0-2.06,0.61-2.08,1.69c-0.03,1.16,0.7,1.8,2.06,1.8c8.34,0,16.68,0,25.02,0c1.38,0,2.1-0.62,2.08-1.79
			c-0.02-1.11-0.74-1.71-2.06-1.71C50.4,66.81,46.23,66.81,42.06,66.81z"/>
		<path class="st0" d="M81.92,29.35c-4.45,0-9.05,0-13.72,0c0-4.66,0-9.29,0-13.72C72.72,20.16,77.33,24.76,81.92,29.35z"/>
		<path d="M77.07,70.95c-1.7,0.27-3.32,0.52-4.83,0.76c-0.58-0.74-1.1-1.38-1.61-2.03c-0.1,0.04-0.2,0.09-0.3,0.13
			c0,1.19-0.02,2.38,0.03,3.56c0.01,0.16,0.37,0.37,0.61,0.45c0.92,0.34,1.88,0.59,2.79,0.97c2.88,1.19,4.03,2.95,3.9,5.86
			c-0.11,2.4-2,4.74-4.49,5.49c-0.87,0.26-1.79,0.37-2.81,0.57c0,0.75,0,1.56,0,2.43c-0.67,0-1.23,0-1.93,0c0-0.81,0-1.64,0-2.52
			c-3.92-0.32-6.79-1.82-7.59-6.04c1.82-0.21,3.61-0.42,5.45-0.64c0.25,1.31,0.68,2.41,2.11,2.96c0-1.56,0.02-3.04-0.03-4.52
			c-0.01-0.16-0.37-0.37-0.6-0.46c-0.89-0.33-1.82-0.59-2.7-0.93c-2.21-0.85-3.42-2.63-3.45-4.99c-0.03-2.32,1.24-4.36,3.38-5.18
			c1.06-0.41,2.2-0.58,3.37-0.88c0.03-0.33,0.07-0.73,0.11-1.17c0.6,0,1.16,0,1.8,0c0.04,0.4,0.08,0.8,0.12,1.31
			C73.52,66.35,76.2,67.34,77.07,70.95z M70.35,82.98c1.38-0.21,2.29-1.09,2.25-2.16c-0.04-1.02-0.98-1.86-2.25-2
			C70.35,80.2,70.35,81.59,70.35,82.98z M68.31,73.04c0-1.16,0-2.25,0-3.39c-0.94,0.23-1.5,0.71-1.57,1.62
			C66.69,72.11,67.21,72.69,68.31,73.04z"/>
		<path d="M51.51,49.94c-7.26,0-14.53,0-21.79,0c-1.43,0-2.13-0.49-2.24-1.54c-0.11-0.98,0.44-1.76,1.41-1.97
			c0.25-0.05,0.51-0.05,0.76-0.05c14.59,0,29.18,0,43.77,0c1.43,0,2.31,0.75,2.23,1.89c-0.07,0.96-0.78,1.64-1.87,1.66
			c-1.37,0.04-2.74,0.01-4.11,0.01C63.61,49.94,57.56,49.94,51.51,49.94z"/>
		<path d="M51.5,56.6c7.17,0,14.33,0,21.5,0c0.35,0,0.7-0.01,1.05,0.03c0.91,0.1,1.52,0.75,1.58,1.63c0.06,0.86-0.49,1.62-1.36,1.83
			c-0.27,0.07-0.57,0.06-0.85,0.06c-14.59,0-29.18,0-43.77,0c-1.47,0-2.25-0.69-2.18-1.9c0.05-0.88,0.59-1.49,1.48-1.59
			c0.47-0.05,0.95-0.04,1.43-0.04C37.42,56.6,44.46,56.6,51.5,56.6z"/>
		<path d="M42.04,76.97c4.14,0,8.28-0.02,12.42,0.03c0.58,0.01,1.29,0.23,1.71,0.61c0.99,0.9,0.47,2.53-0.84,2.84
			c-0.34,0.08-0.69,0.09-1.04,0.09c-8.18,0-16.37,0-24.55,0c-0.16,0-0.32,0-0.48-0.01c-1.17-0.1-1.8-0.74-1.79-1.81
			c0.01-1.02,0.72-1.73,1.86-1.74c2.04-0.03,4.08-0.01,6.11-0.01C37.65,76.97,39.84,76.97,42.04,76.97z"/>
		<path d="M42.06,66.81c4.17,0,8.34,0,12.51,0c1.33,0,2.04,0.6,2.06,1.71c0.02,1.16-0.69,1.79-2.08,1.79c-8.34,0-16.68,0-25.02,0
			c-1.37,0-2.09-0.64-2.06-1.8c0.02-1.08,0.76-1.69,2.08-1.69C33.72,66.81,37.89,66.81,42.06,66.81z"/>
		<path d="M33.6,23.38c0,1.48-0.35,2.35-0.98,3.47c-1.4,2.49-4.9,2.55-6.55,0.22c-1.41-1.99-1.37-5.82,0.08-7.78
			c1.03-1.4,2.43-1.9,4.1-1.63c1.58,0.26,2.52,1.3,2.98,2.75C33.48,21.26,33.6,21.9,33.6,23.38z M31.65,23.1
			c0-0.94-0.11-1.81-0.4-2.67c-0.28-0.82-0.9-1.38-1.85-1.4c-0.91-0.01-1.51,0.49-1.86,1.26c-0.85,1.86-0.86,3.76-0.07,5.64
			c0.35,0.84,0.99,1.41,1.99,1.36s1.58-0.68,1.85-1.54C31.56,24.91,31.65,24.04,31.65,23.1z"/>
		<path d="M21.76,15.77c0,1.48-0.35,2.35-0.98,3.47c-1.4,2.49-4.9,2.55-6.55,0.22c-1.41-1.99-1.37-5.82,0.08-7.78
			c1.03-1.4,2.43-1.9,4.1-1.63c1.58,0.26,2.52,1.3,2.98,2.75C21.64,13.66,21.76,14.29,21.76,15.77z M19.81,15.49
			c0-0.94-0.11-1.81-0.4-2.67c-0.28-0.82-0.9-1.38-1.85-1.4c-0.91-0.01-1.51,0.49-1.86,1.26c-0.85,1.86-0.86,3.76-0.07,5.64
			c0.35,0.84,0.99,1.41,1.99,1.36s1.58-0.68,1.85-1.54C19.72,17.3,19.81,16.43,19.81,15.49z"/>
		<path d="M17.31,28.71c1.48-2.6,2.92-5.13,4.36-7.67c1.88-3.31,3.79-6.61,5.62-9.96c0.48-0.88,1.03-1.3,2.11-0.98
			c-1.1,1.95-2.2,3.9-3.31,5.85c-2.26,3.98-4.55,7.94-6.77,11.94C18.87,28.74,18.35,29.05,17.31,28.71z"/>
		<path class="st0" d="M70.35,82.98c0-1.39,0-2.77,0-4.16c1.26,0.14,2.21,0.98,2.25,2C72.64,81.88,71.73,82.77,70.35,82.98z"/>
		<path class="st0" d="M68.31,73.04c-1.11-0.35-1.63-0.93-1.57-1.77c0.07-0.91,0.62-1.39,1.57-1.62
			C68.31,70.79,68.31,71.88,68.31,73.04z"/>
	</g>
</g>
</svg>
