<?xml version="1.0" encoding="utf-8"?>
<!-- Generator: Adobe Illustrator 26.4.1, SVG Export Plug-In . SVG Version: 6.00 Build 0)  -->
<svg version="1.1" id="Capa_1" xmlns="http://www.w3.org/2000/svg" xmlns:xlink="http://www.w3.org/1999/xlink" x="0px" y="0px"
	 viewBox="0 0 100 100" style="enable-background:new 0 0 100 100;" xml:space="preserve">
<style type="text/css">
	.st0{fill:#FFFFFF;}
</style>
<g id="xAEqq2.tif">
	<g>
		<path d="M39.91,5.8c1.81,0.32,3.66,0.52,5.43,0.98c13.79,3.57,22.88,12.18,27.09,25.75c2.21,7.13,1.96,14.34-0.31,21.47
			c-0.07,0.21-0.11,0.43-0.2,0.77c0.39,0,0.73,0,1.08,0c8.19,0,16.38,0,24.58,0c1.76,0,2.42,0.66,2.42,2.4c0,10.82,0,21.65,0,32.47
			c0,1.69-0.68,2.38-2.34,2.38c-7.83,0-15.67,0-23.5,0c-1.19,0-2-0.63-2.19-1.66c-0.15-0.83,0.38-1.83,1.22-2.11
			c0.45-0.15,0.96-0.15,1.44-0.15c6.73-0.01,13.46-0.01,20.19-0.01c0.38,0,0.77,0,1.21,0c0-9.83,0-19.56,0-29.35
			c-20.54,0-41.04,0-61.62,0c0,9.74,0,19.48,0,29.35c0.4,0,0.78,0,1.15,0c6.6,0,13.2,0,19.8,0c0.36,0,0.72-0.01,1.07,0.02
			c1.12,0.08,1.85,0.88,1.83,1.99c-0.02,1.09-0.79,1.88-1.91,1.91c-0.91,0.03-1.82,0.01-2.73,0.01c-6.92,0-13.85,0-20.77,0
			c-1.79,0-2.47-0.68-2.48-2.47c0-3.48,0-6.95,0-10.48c-1.35-0.36-2.7-0.64-4.01-1.07C12.69,73.46,4.18,64.19,0.89,50.17
			c-0.34-1.44-0.52-2.92-0.78-4.38c0-2.02,0-4.03,0-6.05c0.06-0.25,0.13-0.5,0.18-0.75c0.4-2.1,0.59-4.26,1.21-6.28
			C5.75,19.02,14.83,10.34,28.73,6.77c1.74-0.45,3.55-0.65,5.33-0.97C36.01,5.8,37.96,5.8,39.91,5.8z M30.36,66.88
			c0-3.28,0-6.43,0-9.58c0-1.87,0.66-2.53,2.51-2.53c8.42,0,16.84-0.01,25.26,0.02c0.64,0,1.03-0.14,1.26-0.76
			c0.59-1.61,1.3-3.18,1.79-4.82c0.43-1.44,0.61-2.94,0.9-4.37c-0.27-0.12-0.33-0.16-0.39-0.16c-0.75-0.01-1.5-0.01-2.24-0.02
			c-1.36-0.03-2.18-0.77-2.17-1.96c0-1.18,0.85-1.95,2.18-1.96c0.83-0.01,1.66,0,2.56,0c-0.5-5.48-2.45-10.17-5.95-14.33
			c-0.62,0.63-1.16,1.19-1.71,1.74c-1.02,1-2.15,1.08-3.01,0.23c-0.84-0.83-0.77-2.03,0.19-3.02c0.56-0.57,1.14-1.11,1.77-1.72
			c-4.22-3.53-8.91-5.48-14.19-5.94c-0.08,0.12-0.11,0.15-0.11,0.18c-0.02,0.84-0.03,1.69-0.06,2.53c-0.04,1.25-0.83,2.03-2.02,2
			c-1.12-0.03-1.87-0.82-1.89-2.03c-0.02-0.87,0-1.74,0-2.7c-5.46,0.51-10.17,2.44-14.36,5.99c0.71,0.67,1.35,1.23,1.93,1.84
			c0.86,0.91,0.86,2.09,0.06,2.87c-0.81,0.79-1.96,0.77-2.87-0.1c-0.61-0.58-1.16-1.23-1.81-1.91c-3.56,4.21-5.51,8.92-6,14.37
			c0.96,0,1.79-0.01,2.63,0c1.27,0.02,2.08,0.78,2.09,1.94c0.01,1.18-0.77,1.94-2.04,1.97c-0.87,0.02-1.73,0-2.68,0
			c0.5,5.46,2.44,10.16,6,14.41c0.64-0.7,1.18-1.34,1.78-1.92c0.9-0.87,2.08-0.9,2.88-0.14c0.85,0.81,0.82,1.99-0.09,2.94
			c-0.58,0.6-1.2,1.17-1.85,1.81C23.58,64.19,26.71,65.86,30.36,66.88z M63.5,54.76c1.12,0,2.16-0.05,3.18,0.02
			c0.74,0.05,1.08-0.2,1.33-0.9c2.07-5.97,2.5-12.03,1.18-18.21c-3.86-18.08-22.44-29.57-40.3-24.9
			C12.13,15.14,1.52,31.28,4.62,48.27c2.44,13.42,10.6,22.03,23.56,26.15c0.68,0.22,1.4,0.33,2.16,0.5c0-1.4,0-2.63,0-3.91
			c-8.26-2.16-14.66-6.83-18.78-14.34c-4.13-7.54-4.79-15.48-1.97-23.6c5.08-14.61,20.81-22.66,35.65-18.25
			c7.31,2.17,13,6.6,16.82,13.21C67.02,36.62,67.29,45.55,63.5,54.76z"/>
		<path d="M54.48,73.36c0.03-5.92,4.88-10.76,10.74-10.71c5.91,0.05,10.76,4.92,10.72,10.76c-0.04,5.89-4.93,10.74-10.78,10.71
			C59.26,84.09,54.45,79.25,54.48,73.36z M71.93,73.39c0-3.75-2.97-6.74-6.71-6.75c-3.74-0.01-6.77,2.99-6.79,6.69
			c-0.01,3.78,3,6.8,6.78,6.8C68.96,80.13,71.93,77.14,71.93,73.39z"/>
		<path d="M88.12,80.14c0-4.55,0-8.96,0-13.5c-1.16,0-2.28,0.01-3.41,0c-1.42-0.01-2.29-0.73-2.33-1.93
			c-0.04-1.24,0.82-2.04,2.3-2.07c1.72-0.03,3.44-0.03,5.16,0c1.56,0.03,2.32,0.81,2.32,2.37c0.01,5.59,0.01,11.17,0,16.76
			c0,1.56-0.76,2.33-2.33,2.36c-1.72,0.03-3.44,0.03-5.16,0c-1.47-0.02-2.34-0.84-2.29-2.07c0.04-1.19,0.91-1.91,2.34-1.92
			C85.82,80.14,86.92,80.14,88.12,80.14z"/>
		<path d="M42.28,66.75c0,4.48,0,8.8,0,13.28c1.27,0,2.53-0.05,3.78,0.01c1.69,0.09,2.63,1.76,1.65,3.01
			c-0.37,0.47-1.11,0.87-1.7,0.9c-1.88,0.11-3.77,0.07-5.65,0.03c-1.24-0.02-2.03-0.78-2.03-2.02c-0.03-5.72-0.03-11.44,0-17.16
			c0.01-1.28,0.82-2.01,2.12-2.03c1.82-0.02,3.64-0.02,5.46,0c1.27,0.01,2.2,0.89,2.18,2.01c-0.01,1.1-0.86,1.91-2.13,1.95
			C44.76,66.78,43.57,66.75,42.28,66.75z"/>
		<path d="M84.3,73.36c0.02,1.06-0.91,2.01-1.97,2.01c-1.04,0-2-0.97-1.99-2c0.01-1.01,0.91-1.92,1.93-1.96
			C83.33,71.37,84.28,72.29,84.3,73.36z"/>
		<path d="M46.16,73.44c-0.02-1.09,0.85-2.01,1.92-2.03c1.06-0.02,1.98,0.9,1.98,1.98c0,1.04-0.84,1.93-1.88,1.98
			C47.12,75.42,46.18,74.52,46.16,73.44z"/>
		<path d="M67.18,90.08c-0.02,1.06-0.96,1.96-2.03,1.94c-1.09-0.02-1.96-0.95-1.92-2.03c0.04-1.06,0.89-1.87,1.96-1.87
			C66.29,88.11,67.2,89.01,67.18,90.08z"/>
		<path class="st0" d="M30.36,66.88c-3.65-1.02-6.79-2.69-9.67-5.14c0.66-0.64,1.27-1.2,1.85-1.81c0.91-0.95,0.94-2.12,0.09-2.94
			c-0.79-0.76-1.98-0.73-2.88,0.14c-0.6,0.58-1.14,1.23-1.78,1.92c-3.56-4.25-5.49-8.95-6-14.41c0.95,0,1.82,0.02,2.68,0
			c1.28-0.03,2.05-0.8,2.04-1.97c-0.01-1.16-0.82-1.92-2.09-1.94c-0.84-0.01-1.68,0-2.63,0c0.49-5.45,2.44-10.16,6-14.37
			c0.65,0.69,1.2,1.33,1.81,1.91c0.91,0.88,2.06,0.9,2.87,0.1c0.8-0.79,0.8-1.97-0.06-2.87c-0.58-0.61-1.22-1.17-1.93-1.84
			c4.19-3.55,8.91-5.49,14.36-5.99c0,0.96-0.01,1.83,0,2.7c0.02,1.21,0.77,2.01,1.89,2.03c1.18,0.03,1.97-0.75,2.02-2
			c0.03-0.84,0.04-1.69,0.06-2.53c0-0.03,0.03-0.05,0.11-0.18c5.28,0.46,9.96,2.41,14.19,5.94c-0.62,0.6-1.21,1.15-1.77,1.72
			c-0.97,0.99-1.04,2.19-0.19,3.02c0.86,0.85,1.99,0.77,3.01-0.23c0.55-0.54,1.09-1.11,1.71-1.74c3.5,4.15,5.45,8.84,5.95,14.33
			c-0.9,0-1.73-0.01-2.56,0c-1.33,0.01-2.18,0.78-2.18,1.96c0,1.19,0.81,1.93,2.17,1.96c0.75,0.02,1.5,0.01,2.24,0.02
			c0.06,0,0.12,0.05,0.39,0.16c-0.28,1.43-0.47,2.93-0.9,4.37c-0.49,1.64-1.2,3.21-1.79,4.82c-0.23,0.62-0.62,0.76-1.26,0.76
			c-8.42-0.02-16.84-0.02-25.26-0.02c-1.86,0-2.51,0.66-2.51,2.53C30.36,60.45,30.36,63.6,30.36,66.88z M35.04,40.72
			c-3.17,0-6.2-0.01-9.22,0c-1.27,0-2.09,0.77-2.1,1.93c-0.02,1.18,0.76,1.97,2.03,1.98c3.71,0.02,7.41,0.02,11.12,0
			c1.34-0.01,2.07-0.72,2.08-2.04c0.02-4.71,0.02-9.43,0-14.14c0-1.23-0.85-2.11-1.95-2.12c-1.12-0.01-1.96,0.92-1.96,2.2
			c-0.01,3.67,0,7.35,0,11.02C35.04,39.91,35.04,40.26,35.04,40.72z"/>
		<path class="st0" d="M63.5,54.76c3.79-9.21,3.53-18.15-1.44-26.73C58.24,21.43,52.55,17,45.24,14.82
			C30.4,10.41,14.66,18.46,9.58,33.07c-2.82,8.12-2.16,16.06,1.97,23.6c4.12,7.51,10.52,12.18,18.78,14.34c0,1.28,0,2.51,0,3.91
			c-0.76-0.17-1.48-0.28-2.16-0.5C15.22,70.31,7.06,61.69,4.62,48.27c-3.1-17,7.51-33.13,24.27-37.51
			c17.85-4.67,36.44,6.82,40.3,24.9c1.32,6.18,0.9,12.25-1.18,18.21c-0.24,0.7-0.59,0.95-1.33,0.9
			C65.65,54.71,64.62,54.76,63.5,54.76z"/>
		<path d="M35.04,40.72c0-0.46,0-0.81,0-1.16c0-3.67,0-7.35,0-11.02c0-1.28,0.84-2.21,1.96-2.2c1.1,0.01,1.94,0.89,1.95,2.12
			c0.01,4.71,0.02,9.43,0,14.14c-0.01,1.32-0.73,2.03-2.08,2.04c-3.71,0.02-7.41,0.02-11.12,0c-1.27-0.01-2.05-0.8-2.03-1.98
			c0.01-1.15,0.83-1.92,2.1-1.93C28.84,40.71,31.86,40.72,35.04,40.72z"/>
	</g>
</g>
</svg>
