<?xml version="1.0" encoding="utf-8"?>
<!-- Generator: Adobe Illustrator 27.1.0, SVG Export Plug-In . SVG Version: 6.00 Build 0)  -->
<svg version="1.1" id="Capa_1" xmlns="http://www.w3.org/2000/svg" xmlns:xlink="http://www.w3.org/1999/xlink" x="0px" y="0px"
	 viewBox="0 0 100 100" style="enable-background:new 0 0 100 100;" xml:space="preserve">
<style type="text/css">
	.st0{fill:#FFFFFF;}
</style>
<g>
	<path class="st0" d="M57.4,98.8c-6.7,0-12.9,0-19.4,0c0-16,0-31.8,0-48c-3.5,0-6.7,0-10,0c0-5.5,0-10.8,0-16.3c3.2,0,6.4,0,9.8,0
		c0-2.8-0.1-5.4,0-7.9c0.2-3.5,0.2-7,0.8-10.5C39.7,9.6,43.8,5.5,50.1,4c3.2-0.7,6.6-0.8,10-1c3.9-0.2,7.8,0,12,0c0,5.6,0,11,0,16.7
		c-3.1,0-6.3,0-9.5,0c-4.4,0-5.1,0.8-5.2,5.1c0,2.9,0,5.9,0,8.8c0,0.1,0.1,0.3,0.2,0.7c4.7,0,9.6,0,14.7,0c-0.5,5.2-0.9,10-1.5,14.9
		c-0.1,0.5-1,1.1-1.6,1.2c-2.9,0.2-5.9,0.1-8.8,0.2c-0.9,0-1.8,0-3.1,0C57.4,66.7,57.4,82.6,57.4,98.8z"/>
</g>
</svg>
