<?xml version="1.0" encoding="utf-8"?>
<!-- Generator: Adobe Illustrator 26.4.1, SVG Export Plug-In . SVG Version: 6.00 Build 0)  -->
<svg version="1.1" id="Capa_1" xmlns="http://www.w3.org/2000/svg" xmlns:xlink="http://www.w3.org/1999/xlink" x="0px" y="0px"
	 viewBox="0 0 100 100" style="enable-background:new 0 0 100 100;" xml:space="preserve">
<style type="text/css">
	.st0{fill:#FFFFFF;}
</style>
<g id="kEn694.tif">
	<g>
		<path d="M0.65,100c0-7.41,0-14.82,0-22.34c3.2,0,6.3,0,9.51,0c0-1.5-0.02-2.91,0-4.31c0.04-2.62,1.35-4.45,3.63-5.03
			c0.64-0.16,1.33-0.16,2-0.16c10.44-0.01,20.88-0.01,31.32-0.01c0.38,0,0.76,0,1.21,0c0-3.18,0-6.28,0-9.5c-1.53,0-3.05,0-4.69,0
			c0-2.13-0.06-4.15,0.02-6.16c0.04-0.93-0.24-1.4-1.14-1.6c-0.52-0.12-1.03-0.36-1.52-0.59c-1.58-0.73-1.58-0.74-2.79,0.47
			c-1.29,1.3-2.57,2.61-3.79,3.84c-3.03-3.05-6-6.04-9.03-9.09c1.6-1.55,3.32-3.22,4.98-4.84c-0.57-1.42-1.04-2.67-1.59-3.89
			c-0.1-0.22-0.53-0.42-0.81-0.43c-1.83-0.04-3.66-0.02-5.49-0.02c-0.35,0-0.69,0-1.11,0c0-4.28,0-8.47,0-12.82c1.3,0,2.6,0,3.91,0
			c1.06,0,2.32,0.33,3.12-0.14c0.71-0.42,0.91-1.72,1.33-2.63c0.21-0.46,0.42-0.92,0.65-1.42c-1.71-1.69-3.4-3.36-4.99-4.93
			c3.04-3.03,6.02-6.02,9.07-9.06c1.36,1.36,2.9,2.85,4.37,4.4c0.47,0.5,0.83,0.49,1.39,0.22c1.1-0.52,2.23-0.96,3.41-1.46
			c0-2.33,0-4.7,0-7.15c4.24,0,8.43,0,12.7,0c0,2.38,0,4.77,0,7.1c1.36,0.59,2.61,1.17,3.89,1.66c0.22,0.08,0.65-0.12,0.85-0.31
			c1.56-1.52,3.08-3.08,4.57-4.58c3.03,3.03,6,6,9.07,9.07c-1.41,1.4-2.85,2.9-4.37,4.31c-0.6,0.56-0.68,1.01-0.28,1.7
			c0.36,0.64,0.71,1.32,0.86,2.03c0.22,1.05,0.8,1.26,1.77,1.22c1.63-0.08,3.28-0.02,4.91-0.02c0.34,0,0.69,0.03,1.07,0.05
			c0,4.26,0,8.42,0,12.77c-0.38,0-0.74,0-1.11,0c-1.83,0-3.66-0.02-5.49,0.02c-0.3,0.01-0.74,0.24-0.85,0.49
			c-0.55,1.19-1.01,2.42-1.56,3.77c1.66,1.62,3.38,3.3,5.02,4.91c-3.02,3.03-5.99,6-9.05,9.06c-1.36-1.37-2.85-2.81-4.27-4.32
			c-0.55-0.58-0.99-0.73-1.72-0.3c-0.74,0.43-1.56,0.76-2.39,0.98c-0.74,0.2-0.91,0.58-0.89,1.29c0.05,1.77,0.02,3.53,0.02,5.3
			c0,0.31,0,0.63,0,1.03c-1.6,0-3.09,0-4.68,0c0,3.21,0,6.33,0,9.55c0.42,0,0.79,0,1.17,0c10.54,0,21.07,0.05,31.61-0.03
			c3.05-0.02,5.45,1.94,5.38,5.4c-0.02,1.03,0,2.06,0,3.08c0,0.31,0,0.63,0,1.03c3.23,0,6.37,0,9.51,0c0,7.45,0,14.91,0,22.36
			c-7.45,0-14.91,0-22.36,0c0-7.43,0-14.86,0-22.39c3.33,0,6.46,0,9.56,0c0.04-0.17,0.06-0.23,0.06-0.29c0-1.19,0.01-2.38,0.01-3.56
			c0-1.9-0.48-2.37-2.4-2.37c-10.5,0-21,0-31.49,0c-0.34,0-0.68,0.03-1.04,0.05c0,2.12,0,4.15,0,6.27c3.19,0,6.29,0,9.5,0
			c0,7.5,0,14.9,0,22.31c-7.45,0-14.91,0-22.36,0c0-7.43,0-14.86,0-22.37c3.28,0,6.38,0,9.49,0c0-2.11,0-4.14,0-6.25
			c-0.4,0-0.72,0-1.04,0c-10.5,0-21,0-31.49,0c-0.26,0-0.51,0.01-0.77,0.02c-0.96,0.04-1.53,0.59-1.58,1.49
			c-0.08,1.56-0.02,3.12-0.02,4.79c3.21,0,6.34,0,9.58,0c0,0.48,0,0.86,0,1.23C22.99,85.94,23,92.97,23.01,100
			C15.56,100,8.1,100,0.65,100z M29.89,45.57c1.53,1.54,2.98,2.98,4.48,4.5c1.23-1.24,2.54-2.51,3.78-3.84
			c0.53-0.57,0.88-0.6,1.6-0.24c1.91,0.94,3.88,1.82,5.9,2.48c0.95,0.31,1.27,0.62,1.22,1.6c-0.09,1.75-0.02,3.51-0.02,5.29
			c2.15,0,4.16,0,6.27,0c0-1.85,0.05-3.64-0.02-5.43c-0.03-0.86,0.24-1.17,1.07-1.42c1.73-0.53,3.42-1.24,5.1-1.93
			c0.64-0.26,1.21-0.68,1.95-1.1c1.54,1.56,3.04,3.08,4.49,4.56c1.47-1.47,2.92-2.92,4.46-4.47c-1.49-1.46-3.05-2.98-4.47-4.37
			c0.88-1.99,1.73-3.85,2.52-5.73c0.3-0.73,0.24-1.84,0.75-2.19c0.57-0.4,1.6-0.14,2.43-0.15c1.33-0.01,2.67,0,3.96,0
			c0-2.2,0-4.24,0-6.35c-1.77,0-3.47-0.07-5.16,0.02c-1.03,0.05-1.49-0.2-1.74-1.29c-0.34-1.45-0.94-2.85-1.53-4.23
			c-0.36-0.84-0.89-1.61-1.48-2.64c1.54-1.51,3.08-3.03,4.48-4.41c-1.43-1.43-2.88-2.88-4.38-4.38c-1.44,1.45-2.96,2.97-4.27,4.29
			c-2.44-0.96-4.72-1.96-7.07-2.74c-0.87-0.29-1.15-0.59-1.12-1.48c0.07-1.76,0.02-3.52,0.02-5.31c-2.14,0-4.17,0-6.27,0
			c0,1.93-0.04,3.79,0.02,5.64c0.02,0.7-0.26,0.91-0.88,1.08c-1.32,0.37-2.64,0.79-3.9,1.32c-1.11,0.47-2.14,1.11-3.3,1.72
			c-1.5-1.53-3.01-3.06-4.38-4.47c-1.5,1.5-2.96,2.96-4.53,4.52c1.45,1.42,2.98,2.92,4.29,4.2c-0.97,2.48-1.94,4.77-2.73,7.12
			c-0.28,0.85-0.61,1.07-1.44,1.04c-1.79-0.07-3.58-0.02-5.39-0.02c0,2.17,0,4.23,0,6.35c1.96,0,3.86,0.02,5.75-0.01
			c0.57-0.01,0.8,0.13,0.98,0.74c0.44,1.53,0.97,3.05,1.58,4.52c0.39,0.94,0.98,1.79,1.51,2.74C32.88,42.63,31.35,44.13,29.89,45.57
			z M96.04,96.72c0-5.32,0-10.54,0-15.74c-5.29,0-10.51,0-15.71,0c0,5.29,0,10.51,0,15.74C85.6,96.72,90.79,96.72,96.04,96.72z
			 M3.95,80.95c0,5.3,0,10.52,0,15.75c5.28,0,10.5,0,15.73,0c0-5.28,0-10.5,0-15.75C14.42,80.95,9.23,80.95,3.95,80.95z
			 M57.85,96.72c0-5.33,0-10.54,0-15.74c-5.29,0-10.5,0-15.7,0c0,5.29,0,10.51,0,15.74C47.41,96.72,52.61,96.72,57.85,96.72z"/>
		<path class="st0" d="M29.89,45.57c1.46-1.43,2.99-2.94,4.54-4.47c-0.53-0.95-1.12-1.8-1.51-2.74c-0.61-1.48-1.13-2.99-1.58-4.52
			c-0.17-0.6-0.41-0.74-0.98-0.74c-1.89,0.03-3.79,0.01-5.75,0.01c0-2.11,0-4.17,0-6.35c1.81,0,3.61-0.05,5.39,0.02
			c0.84,0.03,1.16-0.19,1.44-1.04c0.78-2.35,1.76-4.64,2.73-7.12c-1.31-1.28-2.84-2.78-4.29-4.2c1.56-1.56,3.03-3.02,4.53-4.52
			c1.38,1.4,2.88,2.94,4.38,4.47c1.16-0.61,2.19-1.26,3.3-1.72c1.26-0.53,2.58-0.94,3.9-1.32c0.62-0.18,0.9-0.38,0.88-1.08
			c-0.05-1.86-0.02-3.72-0.02-5.64c2.11,0,4.14,0,6.27,0c0,1.8,0.05,3.56-0.02,5.31c-0.04,0.89,0.24,1.19,1.12,1.48
			c2.35,0.78,4.63,1.78,7.07,2.74c1.31-1.32,2.83-2.85,4.27-4.29c1.5,1.5,2.94,2.94,4.38,4.38c-1.4,1.38-2.95,2.9-4.48,4.41
			c0.59,1.03,1.13,1.8,1.48,2.64c0.59,1.38,1.19,2.78,1.53,4.23c0.25,1.08,0.71,1.34,1.74,1.29c1.69-0.09,3.39-0.02,5.16-0.02
			c0,2.11,0,4.15,0,6.35c-1.3,0-2.63-0.01-3.96,0c-0.83,0.01-1.86-0.25-2.43,0.15c-0.51,0.35-0.45,1.46-0.75,2.19
			c-0.79,1.88-1.64,3.74-2.52,5.73c1.43,1.39,2.98,2.91,4.47,4.37c-1.55,1.55-3,3-4.46,4.47c-1.46-1.48-2.96-3-4.49-4.56
			c-0.74,0.42-1.31,0.84-1.95,1.1c-1.68,0.69-3.36,1.4-5.1,1.93c-0.83,0.26-1.11,0.56-1.07,1.42c0.07,1.79,0.02,3.58,0.02,5.43
			c-2.12,0-4.12,0-6.27,0c0-1.79-0.06-3.54,0.02-5.29c0.05-0.98-0.28-1.29-1.22-1.6c-2.02-0.67-3.99-1.54-5.9-2.48
			c-0.73-0.36-1.08-0.33-1.6,0.24c-1.24,1.34-2.56,2.61-3.78,3.84C32.87,48.55,31.42,47.1,29.89,45.57z M62.73,29.98
			c0.01-7.05-5.6-12.7-12.68-12.79c-6.99-0.09-12.78,5.71-12.78,12.79c0,7.02,5.72,12.75,12.73,12.75C57,42.72,62.72,37,62.73,29.98
			z"/>
		<path class="st0" d="M96.04,96.72c-5.25,0-10.45,0-15.71,0c0-5.23,0-10.45,0-15.74c5.2,0,10.42,0,15.71,0
			C96.04,86.18,96.04,91.4,96.04,96.72z M92.94,84.11c-3.2,0-6.35,0-9.48,0c0,1.1,0,2.1,0,3.1c3.2,0,6.33,0,9.48,0
			C92.94,86.15,92.94,85.14,92.94,84.11z M86.6,90.46c-1.1,0-2.11,0-3.16,0c0,1.07,0,2.07,0,3.11c1.08,0,2.11,0,3.16,0
			C86.6,92.51,86.6,91.53,86.6,90.46z M89.8,90.43c0,1.1,0,2.1,0,3.13c1.09,0,2.12,0,3.12,0c0-1.08,0-2.09,0-3.13
			C91.88,90.43,90.9,90.43,89.8,90.43z"/>
		<path class="st0" d="M3.95,80.95c5.28,0,10.47,0,15.73,0c0,5.25,0,10.47,0,15.75c-5.23,0-10.44,0-15.73,0
			C3.95,91.46,3.95,86.25,3.95,80.95z M7.08,84.08c0,1.08,0,2.12,0,3.13c3.2,0,6.33,0,9.47,0c0-1.07,0-2.08,0-3.13
			C13.36,84.08,10.24,84.08,7.08,84.08z M7.04,93.58c3.23,0,6.35,0,9.51,0c0-1.06,0-2.07,0-3.11c-3.21,0-6.35,0-9.51,0
			C7.04,91.54,7.04,92.53,7.04,93.58z"/>
		<path class="st0" d="M57.85,96.72c-5.24,0-10.44,0-15.7,0c0-5.24,0-10.45,0-15.74c5.2,0,10.41,0,15.7,0
			C57.85,86.18,57.85,91.39,57.85,96.72z M45.23,87.22c3.23,0,6.36,0,9.53,0c0-1.06,0-2.07,0-3.11c-3.21,0-6.36,0-9.53,0
			C45.23,85.18,45.23,86.16,45.23,87.22z M54.75,90.47c-3.21,0-6.36,0-9.49,0c0,1.09,0,2.1,0,3.11c3.2,0,6.33,0,9.49,0
			C54.75,92.52,54.75,91.51,54.75,90.47z"/>
		<path d="M62.73,29.98C62.72,37,57,42.72,50,42.72c-7,0-12.72-5.73-12.73-12.75c0-7.07,5.79-12.87,12.78-12.79
			C57.13,17.27,62.73,22.93,62.73,29.98z M40.5,29.97c0.01,5.25,4.32,9.52,9.59,9.5c5.12-0.02,9.39-4.32,9.41-9.49
			c0.02-5.23-4.35-9.62-9.54-9.58C44.77,20.45,40.49,24.77,40.5,29.97z"/>
		<path d="M92.94,84.11c0,1.02,0,2.03,0,3.1c-3.15,0-6.27,0-9.48,0c0-1,0-2,0-3.1C86.59,84.11,89.74,84.11,92.94,84.11z"/>
		<path d="M86.6,90.46c0,1.07,0,2.05,0,3.11c-1.05,0-2.08,0-3.16,0c0-1.04,0-2.04,0-3.11C84.49,90.46,85.49,90.46,86.6,90.46z"/>
		<path d="M89.8,90.43c1.1,0,2.08,0,3.12,0c0,1.04,0,2.05,0,3.13c-1.01,0-2.04,0-3.12,0C89.8,92.54,89.8,91.53,89.8,90.43z"/>
		<path d="M7.08,84.08c3.16,0,6.28,0,9.47,0c0,1.06,0,2.06,0,3.13c-3.15,0-6.27,0-9.47,0C7.08,86.2,7.08,85.16,7.08,84.08z"/>
		<path d="M7.04,93.58c0-1.05,0-2.04,0-3.11c3.16,0,6.3,0,9.51,0c0,1.04,0,2.04,0,3.11C13.4,93.58,10.27,93.58,7.04,93.58z"/>
		<path d="M45.23,87.22c0-1.06,0-2.04,0-3.11c3.17,0,6.32,0,9.53,0c0,1.04,0,2.04,0,3.11C51.59,87.22,48.46,87.22,45.23,87.22z"/>
		<path d="M54.75,90.47c0,1.04,0,2.05,0,3.11c-3.16,0-6.29,0-9.49,0c0-1.01,0-2.02,0-3.11C48.4,90.47,51.55,90.47,54.75,90.47z"/>
	</g>
</g>
</svg>
