<?xml version="1.0" encoding="utf-8"?>
<!-- Generator: Adobe Illustrator 27.1.0, SVG Export Plug-In . SVG Version: 6.00 Build 0)  -->
<svg version="1.1" id="Capa_1" xmlns="http://www.w3.org/2000/svg" xmlns:xlink="http://www.w3.org/1999/xlink" x="0px" y="0px"
	 viewBox="0 0 55.49 54.39" style="enable-background:new 0 0 55.49 54.39;" xml:space="preserve">
<style type="text/css">
	.st0{fill:#E74317;}
</style>
<g>
	<path class="st0" d="M17.19,37.25v-20.1c0-0.3,0.2-0.5,0.5-0.5h20c0.3,0,0.5,0.2,0.5,0.5v20.5c0,0,0,0.1,0.1,0.1h9.9
		c0.3,0,0.5-0.2,0.5-0.5V6.65c0-0.3-0.2-0.5-0.5-0.5h-41c-0.3,0-0.5,0.2-0.5,0.5v41.1c0,0.3,0.2,0.5,0.5,0.5h41.6l-10.5-10.4
		l-0.1-0.1h-20.5C17.39,37.75,17.19,37.55,17.19,37.25z"/>
</g>
</svg>
