<?xml version="1.0" encoding="utf-8"?>
<!-- Generator: Adobe Illustrator 27.1.0, SVG Export Plug-In . SVG Version: 6.00 Build 0)  -->
<svg version="1.1" id="Capa_1" xmlns="http://www.w3.org/2000/svg" xmlns:xlink="http://www.w3.org/1999/xlink" x="0px" y="0px"
	 viewBox="0 0 100 100" style="enable-background:new 0 0 100 100;" xml:space="preserve">
<style type="text/css">
	.st0{fill:#FFFFFF;}
</style>
<g>
	<path class="st0" d="M2.6,69.7c0-13.2,0-26.3,0-39.5C2.8,29.5,3,28.8,3,28C4,14.9,11.5,6.2,24.3,3.6c2-0.4,4-0.6,5.9-0.9
		c13.2,0,26.3,0,39.5,0C70.5,2.8,71.2,3,72,3c13.1,1,21.8,8.5,24.5,21.3c0.4,2,0.6,4,0.9,5.9c0,13.2,0,26.3,0,39.5
		C97.2,70.5,97,71.2,97,72c-1,13.1-8.5,21.8-21.3,24.5c-2,0.4-4,0.6-5.9,0.9c-13.2,0-26.3,0-39.5,0C29.5,97.2,28.8,97,28,97
		C14.9,96,6.2,88.5,3.6,75.7C3.2,73.7,2.9,71.7,2.6,69.7z M88.3,49.9c0.1,0,0.2,0,0.3,0c0-5.9,0-11.8,0-17.8c0-1.2-0.2-2.5-0.3-3.7
		c-0.9-10-6.8-16.4-16.8-16.6c-14.3-0.4-28.7-0.4-43,0c-10,0.3-16.4,6.7-16.7,16.7c-0.4,14.3-0.4,28.7,0,43
		c0.3,10.1,6.7,16.5,16.8,16.8c14.1,0.4,28.3,0.4,42.4,0c10.6-0.3,16.7-6.5,17.2-17C88.7,64.1,88.3,57,88.3,49.9z"/>
	<path class="st0" d="M50,74.4c-13.5,0-24.4-11.1-24.4-24.6c0.1-13.3,11-24.2,24.4-24.2c13.5,0,24.4,11.1,24.4,24.6
		C74.4,63.5,63.4,74.4,50,74.4z M34.3,49.9c0,8.6,7,15.7,15.6,15.8c8.7,0,15.8-6.9,15.9-15.5c0.1-8.8-6.9-15.9-15.6-16
		C41.4,34.2,34.3,41.2,34.3,49.9z"/>
	<path class="st0" d="M75.3,30.3c-3.3,0-5.8-2.4-5.8-5.6S72,19,75.3,19s5.7,2.5,5.7,5.8C81,28,78.6,30.3,75.3,30.3z"/>
</g>
</svg>
