<?xml version="1.0" encoding="utf-8"?>
<!-- Generator: Adobe Illustrator 26.4.1, SVG Export Plug-In . SVG Version: 6.00 Build 0)  -->
<svg version="1.1" id="Capa_1" xmlns="http://www.w3.org/2000/svg" xmlns:xlink="http://www.w3.org/1999/xlink" x="0px" y="0px"
	 viewBox="0 0 100 100" style="enable-background:new 0 0 100 100;" xml:space="preserve">
<style type="text/css">
	.st0{fill:#E74D2A;}
</style>
<g>
	<path class="st0" d="M76.5,90.9c0-0.3,0-0.6,0-0.8c0-10.4,0-20.9,0-31.3c0-2.3-0.1-4.6-0.8-6.9c-0.1-0.5-0.3-0.9-0.4-1.3
		c-1.5-3.8-4.3-5.6-8.3-5.9c-7.2-0.5-11.8,6-11.8,11.1c0,1,0,2,0,3c0,10.5,0,20.9,0,31.4c0,0.3,0,0.5,0,0.8c-6.7,0-13.5,0-20.2,0
		c0-20.3,0-40.5,0-60.8c6.7,0,13.4,0,20.1,0c0,2.8,0,5.6,0,8.4c0,0,0.1,0,0.1,0.1c0.1-0.2,0.2-0.3,0.3-0.5c2.6-3.8,6-6.7,10.4-8.2
		c3.3-1.2,6.6-1.4,10.1-1.1c4.2,0.4,8.1,1.7,11.5,4.2c4.3,3.2,6.8,7.6,8.1,12.7c0.8,3.1,1.2,6.3,1.2,9.6c0,11.8,0,23.5,0,35.3
		c0,0.1,0,0.3,0,0.4C90,90.9,83.3,90.9,76.5,90.9z"/>
	<path class="st0" d="M23.6,30.1c0,20.3,0,40.5,0,60.8c-6.7,0-13.4,0-20.2,0c0-20.3,0-40.5,0-60.8C10.2,30.1,16.9,30.1,23.6,30.1z"
		/>
	<path class="st0" d="M13.5,21.8c-3.5,0-6.6-1.1-8.9-3.8C0.5,13.2,1.2,3.3,10.4,1.1c2.4-0.6,4.9-0.5,7.3,0.2c4.3,1.3,7.1,5,7.3,9.5
		c0.3,6.3-4.4,10.3-9.4,10.8C14.9,21.7,14.2,21.7,13.5,21.8z"/>
</g>
</svg>
