<?xml version="1.0" encoding="utf-8"?>
<!-- Generator: Adobe Illustrator 26.4.1, SVG Export Plug-In . SVG Version: 6.00 Build 0)  -->
<svg version="1.1" id="Capa_1" xmlns="http://www.w3.org/2000/svg" xmlns:xlink="http://www.w3.org/1999/xlink" x="0px" y="0px"
	 viewBox="0 0 100 100" style="enable-background:new 0 0 100 100;" xml:space="preserve">
<style type="text/css">
	.st0{fill:#E74D2A;}
</style>
<g>
	<path class="st0" d="M60.2,97.7c0-5.1,0-9.9,0-14.8c-6.8,0-13.6,0-20.6,0c0,0.9,0,1.7,0,2.5c0,3.6,0,7.3,0,10.9
		c0,1.1-0.2,1.6-1.5,1.6c-5.7-0.1-11.4-0.1-17.1,0c-1.5,0-1.4-0.8-1.4-1.8c0-19.7,0-39.4,0-59.1c0-11,0-22.1,0-33.1
		c0-1.5,0.3-2.1,2-2c18.9,0.1,37.8,0,56.8,0c1.5,0,1.9,0.4,1.9,1.9c0,30.8,0,61.5,0,92.3c0,1.5-0.5,1.9-1.9,1.9
		c-5.4-0.1-10.8,0-16.2,0C61.6,97.8,61,97.8,60.2,97.7z M70.4,12c-0.3-0.2-0.3-0.3-0.4-0.3c-4.8,0-9.5-0.1-14.3,0
		c-0.3,0-0.8,0.7-0.8,1c-0.1,4.4,0,8.8-0.1,13.2c0,0.9,0.4,1.2,1.2,1.2c4.3,0,8.7,0,13.1,0c1.1,0,1.3-0.5,1.3-1.4
		c-0.1-1.5,0-2.9,0-4.4C70.4,18.2,70.4,15,70.4,12z M29.6,11.7c0,4.7,0,9.3,0,13.8c0,1.3,0.5,1.6,1.6,1.5c4.1,0,8.2,0,12.3,0
		c0.5,0,0.9-0.1,1.4-0.1c0-5.1,0-10.1,0-15.2C39.8,11.7,34.8,11.7,29.6,11.7z M55,47.3c0.5,0,0.9,0.1,1.3,0.1c4.2,0,8.4,0,12.6,0
		c1.3,0,1.5-0.5,1.5-1.7c-0.1-4.1-0.1-8.2,0-12.3c0-1.3-0.5-1.6-1.6-1.5c-4.2,0-8.3,0-12.4,0C56,32,55.5,32,55,32.1
		C55,37.2,55,42.2,55,47.3z M55,67.7c4.9,0,9.7,0,14.5-0.1c0.3,0,0.9-0.7,0.9-1c0.1-4.4,0-8.8,0.1-13.2c0-1-0.5-1.2-1.4-1.2
		c-3.4,0-6.7,0-10.1,0c-1.3,0-2.6,0-4,0C55,57.4,55,62.4,55,67.7z M44.9,47.3c0-5.2,0-10.2,0-15.2c-5.1,0-10.2,0-15.2,0
		c0,5.1,0,10.1,0,15.2C34.7,47.3,39.7,47.3,44.9,47.3z M44.8,67.6c0-5.2,0-10.2,0-15.2c-5.1,0-10.1,0-15.2,0c0,5.1,0,10.2,0,15.2
		C34.8,67.6,39.8,67.6,44.8,67.6z"/>
</g>
</svg>
