<?xml version="1.0" encoding="utf-8"?>
<!-- Generator: Adobe Illustrator 27.1.0, SVG Export Plug-In . SVG Version: 6.00 Build 0)  -->
<svg version="1.1" id="Capa_1" xmlns="http://www.w3.org/2000/svg" xmlns:xlink="http://www.w3.org/1999/xlink" x="0px" y="0px"
	 viewBox="0 0 100 100" style="enable-background:new 0 0 100 100;" xml:space="preserve">
<style type="text/css">
	.st0{fill:#FFFFFF;}
</style>
<g>
	<path class="st0" d="M60.22,97.72c0-5.06,0-9.88,0-14.83c-6.83,0-13.58,0-20.57,0c0,0.86,0,1.68,0,2.49
		c0,3.63-0.03,7.26,0.02,10.89c0.01,1.09-0.25,1.59-1.47,1.58c-5.7-0.05-11.41-0.06-17.11,0c-1.45,0.02-1.4-0.77-1.4-1.77
		c0.01-19.71,0.01-39.41,0.01-59.12c0-11.05,0.03-22.09-0.03-33.14c-0.01-1.51,0.31-2.05,1.95-2.04C40.54,1.84,59.47,1.83,78.4,1.79
		c1.47,0,1.94,0.38,1.94,1.91c-0.04,30.76-0.04,61.51,0,92.27c0,1.53-0.48,1.92-1.95,1.9C73,97.79,67.6,97.84,62.21,97.84
		C61.6,97.82,61,97.76,60.22,97.72z M70.45,11.98c-0.26-0.16-0.35-0.26-0.44-0.26c-4.76-0.04-9.52-0.08-14.27-0.04
		c-0.27,0-0.77,0.66-0.78,1.02c-0.06,4.4-0.04,8.8-0.06,13.2c0,0.86,0.37,1.2,1.22,1.19c4.35-0.02,8.7-0.02,13.05,0.01
		c1.05,0.01,1.33-0.46,1.3-1.42c-0.05-1.45-0.01-2.9-0.01-4.35C70.45,18.17,70.45,15.02,70.45,11.98z M29.56,11.71
		c0,4.73,0.05,9.29-0.03,13.84c-0.02,1.31,0.48,1.56,1.63,1.54c4.1-0.04,8.19-0.01,12.29-0.02c0.45,0,0.9-0.08,1.43-0.13
		c0-5.11,0-10.11,0-15.24C39.79,11.71,34.79,11.71,29.56,11.71z M55.02,47.28c0.52,0.05,0.92,0.11,1.33,0.11
		c4.2,0.01,8.4-0.04,12.6,0.03c1.31,0.02,1.54-0.51,1.52-1.65c-0.05-4.09-0.07-8.19,0.01-12.28c0.02-1.28-0.46-1.56-1.62-1.55
		c-4.15,0.05-8.29,0.02-12.44,0.03c-0.45,0-0.89,0.08-1.39,0.13C55.02,37.22,55.02,42.22,55.02,47.28z M55.02,67.67
		c4.93,0,9.69,0.02,14.45-0.05c0.33,0,0.92-0.65,0.92-1.01c0.07-4.4,0.02-8.81,0.06-13.22c0.01-1.05-0.53-1.17-1.36-1.16
		c-3.37,0.02-6.74,0.02-10.11,0.02c-1.28,0-2.57,0-3.97,0C55.02,57.43,55.02,62.43,55.02,67.67z M44.87,47.31
		c0-5.17,0-10.17,0-15.21c-5.13,0-10.16,0-15.21,0c0,5.13,0,10.12,0,15.21C34.74,47.31,39.74,47.31,44.87,47.31z M44.85,67.59
		c0-5.2,0-10.2,0-15.25c-5.11,0-10.11,0-15.18,0c0,5.13,0,10.17,0,15.25C34.78,67.59,39.78,67.59,44.85,67.59z"/>
</g>
</svg>
