<?xml version="1.0" encoding="utf-8"?>
<!-- Generator: Adobe Illustrator 27.1.0, SVG Export Plug-In . SVG Version: 6.00 Build 0)  -->
<svg version="1.1" id="Capa_1" xmlns="http://www.w3.org/2000/svg" xmlns:xlink="http://www.w3.org/1999/xlink" x="0px" y="0px"
	 viewBox="0 0 318.2 43.2" style="enable-background:new 0 0 318.2 43.2;" xml:space="preserve">
<style type="text/css">
	.st0{fill:#020203;}
	.st1{fill:#E74317;}
</style>
<g>
	<g>
		<g>
			<path class="st0" d="M83.2,36.2L81.2,34c-1.1,0.5-2.2,0.9-3.4,1.2s-2.5,0.5-3.8,0.5c-2.1,0-4.1-0.3-5.9-1s-3.4-1.6-4.8-2.9
				c-1.4-1.2-2.4-2.6-3.2-4.3c-0.8-1.6-1.1-3.4-1.1-5.3c0-1.9,0.4-3.6,1.1-5.3c0.8-1.6,1.8-3.1,3.2-4.3c1.4-1.2,2.9-2.2,4.8-2.9
				c1.8-0.7,3.8-1,5.9-1c2.1,0,4,0.3,5.8,1s3.4,1.6,4.8,2.9s2.4,2.7,3.2,4.3c0.8,1.6,1.1,3.4,1.1,5.3c0,1.9-0.4,3.7-1.2,5.4
				c-0.8,1.7-1.9,3.1-3.4,4.3l3,3.3L83.2,36.2z M74,32.1c0.8,0,1.7-0.1,2.4-0.3s1.5-0.4,2.2-0.8L74.9,27l4.1-0.9l2.7,2.9
				c0.9-0.9,1.6-1.9,2.1-3c0.5-1.1,0.8-2.4,0.8-3.7c0-1.4-0.3-2.7-0.8-3.9c-0.6-1.2-1.3-2.2-2.2-3.1c-1-0.9-2.1-1.6-3.3-2.1
				s-2.6-0.7-4.1-0.7c-1.5,0-2.9,0.2-4.2,0.7c-1.3,0.5-2.4,1.2-3.4,2.1s-1.7,1.9-2.2,3.1c-0.5,1.2-0.8,2.5-0.8,3.9s0.3,2.7,0.8,3.9
				c0.5,1.2,1.3,2.2,2.2,3.1s2.1,1.6,3.4,2.1C71.1,31.8,72.5,32.1,74,32.1z"/>
			<path class="st0" d="M101,35.6c-1.6,0-3-0.3-4.3-0.9s-2.2-1.5-2.9-2.6c-0.7-1.1-1-2.4-1-3.9V16.3h4.1v11.3c0,1.5,0.5,2.6,1.4,3.5
				s2.2,1.3,3.8,1.3c1.1,0,2.1-0.2,3-0.7s1.6-1,2.2-1.8V16.3h4.1v19h-4.1v-1.9C105.6,34.9,103.5,35.6,101,35.6z"/>
			<path class="st0" d="M118.2,13.2c-0.7,0-1.3-0.2-1.8-0.7c-0.5-0.4-0.7-1-0.7-1.6c0-0.6,0.2-1.1,0.7-1.6c0.5-0.4,1.1-0.7,1.8-0.7
				c0.7,0,1.3,0.2,1.8,0.7c0.5,0.4,0.7,1,0.7,1.6c0,0.6-0.2,1.1-0.7,1.6C119.5,13,118.9,13.2,118.2,13.2z M116.2,35.3V16.3h4.1v19
				L116.2,35.3L116.2,35.3z"/>
			<path class="st0" d="M135.1,35.6c-2.1,0-3.9-0.4-5.6-1.3c-1.7-0.9-3-2-3.9-3.5c-1-1.5-1.5-3.2-1.5-5s0.5-3.5,1.4-4.9
				s2.2-2.6,3.8-3.5c1.6-0.9,3.4-1.3,5.3-1.3c1.9,0,3.6,0.4,5.1,1.3c1.5,0.9,2.7,2.1,3.6,3.6c0.9,1.5,1.3,3.2,1.3,5.1v1h-16.5
				c0.2,1.1,0.6,2,1.2,2.8c0.6,0.8,1.5,1.5,2.5,1.9c1,0.5,2.1,0.7,3.3,0.7c1,0,2-0.2,2.9-0.5s1.7-0.7,2.3-1.2l2.6,2.3
				c-1.2,0.8-2.4,1.5-3.8,1.9C138.1,35.4,136.6,35.6,135.1,35.6z M128.3,24.2h12.4c-0.2-1-0.6-1.8-1.2-2.6s-1.3-1.4-2.1-1.8
				c-0.9-0.4-1.8-0.6-2.8-0.6c-1,0-2,0.2-2.9,0.6c-0.9,0.4-1.6,1-2.2,1.8C128.9,22.3,128.5,23.2,128.3,24.2z"/>
			<path class="st0" d="M148.6,35.3v-26l4.1-0.7v9.6c1.8-1.4,3.9-2.1,6.4-2.1c2,0,3.8,0.4,5.4,1.3c1.6,0.9,2.9,2,3.8,3.5
				s1.4,3.1,1.4,4.9c0,1.8-0.5,3.5-1.4,5c-0.9,1.5-2.2,2.6-3.8,3.5s-3.4,1.3-5.4,1.3c-1.1,0-2.3-0.2-3.3-0.5
				c-1.1-0.3-2.1-0.8-2.9-1.4v1.6L148.6,35.3L148.6,35.3z M158.5,32.3c1.3,0,2.5-0.3,3.6-0.8c1.1-0.6,1.9-1.3,2.5-2.3
				c0.6-1,0.9-2.1,0.9-3.4s-0.3-2.4-0.9-3.4s-1.5-1.8-2.5-2.4s-2.2-0.9-3.6-0.9c-1.2,0-2.3,0.2-3.3,0.6s-1.9,1-2.5,1.7v8.6
				c0.7,0.7,1.5,1.2,2.6,1.6C156.2,32.1,157.3,32.3,158.5,32.3z"/>
			<path class="st0" d="M173.4,35.3v-19h4.1v2.5c0.7-0.9,1.5-1.6,2.4-2.1c1-0.5,2.1-0.7,3.3-0.7c0.9,0,1.5,0.1,2.1,0.3v3.4
				c-0.4-0.1-0.8-0.2-1.2-0.3c-0.4-0.1-0.8-0.1-1.3-0.1c-1.2,0-2.2,0.3-3.1,0.9c-0.9,0.6-1.7,1.4-2.2,2.5v12.7L173.4,35.3
				L173.4,35.3z"/>
			<path class="st0" d="M195.3,35.6c-1.5,0-2.9-0.2-4-0.7c-1.1-0.5-2.1-1.2-2.7-2s-1-1.9-1-3c0-1.8,0.8-3.2,2.3-4.2
				c1.5-1,3.6-1.5,6.2-1.5c2.1,0,3.9,0.3,5.6,1v-2c0-1.4-0.4-2.4-1.3-3s-2.1-1-3.8-1c-1,0-1.9,0.1-3,0.4c-1,0.3-2.2,0.7-3.5,1.2
				l-1.6-2.8c1.6-0.7,3-1.2,4.4-1.5c1.4-0.3,2.8-0.5,4.2-0.5c2.7,0,4.8,0.6,6.3,1.8c1.5,1.2,2.2,2.8,2.2,5v12.6h-4.1v-1.6
				c-0.9,0.7-1.9,1.2-2.9,1.5C197.6,35.4,196.5,35.6,195.3,35.6z M191.4,29.7c0,0.9,0.4,1.7,1.3,2.3s2,0.9,3.4,0.9
				c1.1,0,2.1-0.2,3-0.5s1.8-0.8,2.5-1.4v-3.2c-0.8-0.4-1.6-0.7-2.5-0.9c-0.9-0.2-1.8-0.3-2.8-0.3c-1.5,0-2.7,0.3-3.6,0.9
				C191.9,28,191.4,28.8,191.4,29.7z"/>
			<path class="st0" d="M219.5,35.3v-26h4.3v22.6h16.5v3.5H219.5z"/>
			<path class="st0" d="M254.1,35.6c-2.1,0-3.9-0.4-5.6-1.3c-1.6-0.9-3-2-3.9-3.5c-1-1.5-1.5-3.2-1.5-5s0.5-3.5,1.4-4.9
				s2.2-2.6,3.8-3.5s3.4-1.3,5.3-1.3c1.9,0,3.6,0.4,5.1,1.3c1.5,0.9,2.7,2.1,3.6,3.6c0.9,1.5,1.3,3.2,1.3,5.1v1h-16.5
				c0.2,1.1,0.6,2,1.2,2.8c0.6,0.8,1.5,1.5,2.5,1.9c1,0.5,2.1,0.7,3.3,0.7c1,0,2-0.2,3-0.5c0.9-0.3,1.7-0.7,2.3-1.2l2.6,2.3
				c-1.2,0.8-2.5,1.5-3.8,1.9C257.1,35.4,255.7,35.6,254.1,35.6z M247.3,24.2h12.4c-0.2-1-0.6-1.8-1.2-2.6c-0.6-0.8-1.3-1.4-2.1-1.8
				c-0.9-0.4-1.8-0.6-2.8-0.6c-1,0-2,0.2-2.9,0.6c-0.9,0.4-1.6,1-2.2,1.8C247.9,22.3,247.5,23.2,247.3,24.2z"/>
			<path class="st0" d="M277.9,43.2c-1.5,0-3-0.2-4.4-0.5c-1.5-0.3-2.8-0.8-3.9-1.4l1.6-2.9c1.2,0.5,2.3,1,3.4,1.2
				c1.1,0.3,2.1,0.4,3.2,0.4c1.9,0,3.3-0.4,4.2-1.1c0.9-0.7,1.4-1.9,1.4-3.3v-2.2c-1.8,1.3-3.9,2-6.3,2c-1.9,0-3.7-0.4-5.3-1.3
				s-2.9-2-3.8-3.5s-1.4-3.1-1.4-4.9c0-1.8,0.5-3.5,1.4-4.9c1-1.5,2.2-2.6,3.8-3.5c1.6-0.9,3.4-1.3,5.4-1.3c1.1,0,2.2,0.2,3.3,0.5
				s2,0.8,2.9,1.5v-1.6h4v19.2c0,2.5-0.8,4.4-2.5,5.7S281,43.2,277.9,43.2z M277.6,32.2c1.2,0,2.3-0.2,3.3-0.6
				c1-0.4,1.8-0.9,2.5-1.6v-8.6c-0.6-0.7-1.5-1.2-2.5-1.6c-1-0.4-2.1-0.6-3.3-0.6c-1.3,0-2.5,0.3-3.5,0.8c-1,0.6-1.9,1.3-2.5,2.3
				c-0.6,1-0.9,2.1-0.9,3.3c0,1.2,0.3,2.3,0.9,3.3c0.6,1,1.5,1.8,2.5,2.3C275.2,31.9,276.4,32.2,277.6,32.2z"/>
			<path class="st0" d="M298.9,35.6c-1.5,0-2.9-0.2-4-0.7c-1.1-0.5-2-1.2-2.7-2c-0.7-0.9-1-1.9-1-3c0-1.8,0.8-3.2,2.3-4.2
				c1.5-1,3.6-1.5,6.2-1.5c2,0,3.9,0.3,5.6,1v-2c0-1.4-0.4-2.4-1.3-3c-0.9-0.7-2.1-1-3.8-1c-1,0-1.9,0.1-3,0.4s-2.2,0.7-3.5,1.2
				l-1.6-2.8c1.6-0.7,3-1.2,4.4-1.5c1.4-0.3,2.8-0.5,4.2-0.5c2.7,0,4.8,0.6,6.3,1.8c1.5,1.2,2.2,2.8,2.2,5v12.6h-4.1v-1.6
				c-0.9,0.7-1.9,1.2-3,1.5C301.3,35.4,300.2,35.6,298.9,35.6z M295.1,29.7c0,0.9,0.4,1.7,1.3,2.3s2,0.9,3.4,0.9
				c1.1,0,2.1-0.2,3-0.5s1.8-0.8,2.5-1.4v-3.2c-0.8-0.4-1.6-0.7-2.5-0.9c-0.9-0.2-1.8-0.3-2.8-0.3c-1.5,0-2.7,0.3-3.6,0.9
				C295.6,28,295.1,28.8,295.1,29.7z"/>
			<path class="st0" d="M314.1,35.3v-26l4.1-0.7v26.8C318.2,35.3,314.1,35.3,314.1,35.3z"/>
		</g>
	</g>
	<path class="st1" d="M10,31.1V11c0-0.3,0.2-0.5,0.5-0.5h20c0.3,0,0.5,0.2,0.5,0.5v20.5c0,0,0,0.1,0.1,0.1h9.9
		c0.3,0,0.5-0.2,0.5-0.5V0.5c0-0.3-0.2-0.5-0.5-0.5H0c-0.3,0-0.5,0.2-0.5,0.5v41.1c0,0.3,0.2,0.5,0.5,0.5h41.6L31.1,31.7
		c0,0-0.1-0.1-0.1-0.1H10.5C10.2,31.6,10,31.4,10,31.1z"/>
</g>
</svg>
