<?xml version="1.0" encoding="utf-8"?>
<!-- Generator: Adobe Illustrator 26.4.1, SVG Export Plug-In . SVG Version: 6.00 Build 0)  -->
<svg version="1.1" id="Capa_1" xmlns="http://www.w3.org/2000/svg" xmlns:xlink="http://www.w3.org/1999/xlink" x="0px" y="0px"
	 viewBox="0 0 41.37 40" style="enable-background:new 0 0 41.37 40;" xml:space="preserve">
<style type="text/css">
	.st0{fill:#E74D2A;}
</style>
<g>
	<g>
		<path class="st0" d="M20.08,39.76c-10.8,0-19.58-8.78-19.58-19.58S9.28,0.61,20.08,0.61s19.57,8.78,19.57,19.57
			S30.87,39.76,20.08,39.76z M20.08,2.4c-9.8,0-17.78,7.98-17.78,17.78s7.98,17.78,17.78,17.78s17.78-7.98,17.78-17.78
			S29.88,2.4,20.08,2.4z"/>
	</g>
	<polygon class="st0" points="25.4,9.52 20.21,24.79 14.77,9.55 14.76,9.52 10.03,9.52 10.03,29.5 18.17,29.5 17.38,27.14 
		12.26,27.14 12.26,11.61 13.1,11.61 19.44,29.45 20.71,29.45 27.05,11.61 27.79,11.61 27.79,27.14 23.11,27.14 22.3,29.5 
		30.03,29.5 30.03,9.52 	"/>
</g>
</svg>
