<?xml version="1.0" encoding="utf-8"?>
<!-- Generator: Adobe Illustrator 27.1.0, SVG Export Plug-In . SVG Version: 6.00 Build 0)  -->
<svg version="1.1" id="Capa_1" xmlns="http://www.w3.org/2000/svg" xmlns:xlink="http://www.w3.org/1999/xlink" x="0px" y="0px"
	 viewBox="0 0 100 100" style="enable-background:new 0 0 100 100;" xml:space="preserve">
<style type="text/css">
	.st0{fill:#FFFFFF;}
</style>
<g>
	<path class="st0" d="M1.79,37.37c2.12,1.02,4.19,2.02,6.27,3.02c13.07,6.27,26.14,12.53,39.2,18.81c1.83,0.88,3.57,0.91,5.42,0.01
		c8.84-4.3,17.7-8.56,26.55-12.83c5.9-2.85,11.8-5.69,17.71-8.53c0.31-0.15,0.64-0.26,1.17-0.47c0,1.33,0,2.49,0,3.66
		c0,11.06-0.07,22.12,0.03,33.18c0.04,4.4-1.93,7.57-5.28,10.05c-2.41,1.78-5.11,2.69-8.17,2.66c-9.17-0.07-18.33-0.06-27.5-0.07
		c-13.87-0.01-27.75,0.01-41.62-0.01c-6.24,0-12.09-4.27-13.57-9.84c-0.18-0.68-0.22-1.41-0.22-2.11c-0.01-11.45,0-22.9,0.01-34.36
		C1.79,39.55,1.79,38.55,1.79,37.37z"/>
	<path class="st0" d="M50,18.02c11.44,0,22.89-0.1,34.33,0.04c6.2,0.08,10.93,2.83,13.51,8.72c0.79,1.82,0.36,3.14-1.4,3.99
		C87.73,34.99,79,39.19,70.28,43.39c-6.22,3-12.45,5.97-18.66,9c-0.96,0.47-1.76,0.46-2.72,0c-13.65-6.6-27.32-13.15-40.98-19.72
		C6.28,31.88,4.65,31.09,3,30.32c-0.84-0.4-1.09-0.98-0.89-1.9c1.15-5.07,5.75-9.35,11.22-10.14c2.13-0.31,4.33-0.25,6.5-0.25
		C29.89,18,39.95,18.01,50,18.02C50,18.01,50,18.01,50,18.02z"/>
</g>
</svg>
