<?xml version="1.0" encoding="utf-8"?>
<!-- Generator: Adobe Illustrator 26.4.1, SVG Export Plug-In . SVG Version: 6.00 Build 0)  -->
<svg version="1.1" id="Capa_1" xmlns="http://www.w3.org/2000/svg" xmlns:xlink="http://www.w3.org/1999/xlink" x="0px" y="0px"
	 viewBox="0 0 100 100" style="enable-background:new 0 0 100 100;" xml:space="preserve">
<style type="text/css">
	.st0{fill:#E74D2A;}
</style>
<g>
	<path class="st0" d="M4.8,38.3c2,1,3.9,1.9,5.9,2.8C22.9,47,35.2,52.9,47.4,58.8c1.7,0.8,3.3,0.8,5.1,0c8.3-4,16.6-8,24.9-12
		c5.5-2.7,11.1-5.3,16.6-8c0.3-0.1,0.6-0.2,1.1-0.4c0,1.2,0,2.3,0,3.4c0,10.4-0.1,20.7,0,31.1c0,4.1-1.8,7.1-4.9,9.4
		c-2.2,1.7-4.8,2.5-7.7,2.5c-8.6-0.1-17.2-0.1-25.8-0.1c-13,0-26,0-39,0c-5.9,0-11.3-4-12.7-9.2c-0.2-0.6-0.2-1.3-0.2-2
		c0-10.7,0-21.5,0-32.2C4.8,40.4,4.8,39.4,4.8,38.3z"/>
	<path class="st0" d="M50,20.2c10.7,0,21.4-0.1,32.2,0c5.8,0.1,10.2,2.6,12.7,8.2c0.7,1.7,0.3,2.9-1.3,3.7C85.4,36.1,77.2,40,69,44
		c-5.8,2.8-11.7,5.6-17.5,8.4c-0.9,0.4-1.7,0.4-2.5,0c-12.8-6.2-25.6-12.3-38.4-18.5c-1.5-0.7-3.1-1.5-4.6-2.2
		c-0.8-0.4-1-0.9-0.8-1.8c1.1-4.8,5.4-8.8,10.5-9.5c2-0.3,4.1-0.2,6.1-0.2C31.1,20.2,40.6,20.2,50,20.2C50,20.2,50,20.2,50,20.2z"/>
</g>
</svg>
