<?xml version="1.0" encoding="utf-8"?>
<!-- Generator: Adobe Illustrator 26.4.1, SVG Export Plug-In . SVG Version: 6.00 Build 0)  -->
<svg version="1.1" id="Capa_1" xmlns="http://www.w3.org/2000/svg" xmlns:xlink="http://www.w3.org/1999/xlink" x="0px" y="0px"
	 viewBox="0 0 49.04 11.88" style="enable-background:new 0 0 49.04 11.88;" xml:space="preserve">
<g>
	<path d="M7.39,6.57c0-1.5,0.02-3.1,0.05-3.99H7.4C7.01,4.11,5.83,7.65,5,10.01H3.95C3.33,8.03,2.11,4.17,1.72,2.57H1.67
		c0.07,0.96,0.1,2.79,0.1,4.22v3.23H0.69V1.74h1.73c0.81,2.35,1.85,5.63,2.12,6.79h0.02c0.17-0.85,1.42-4.43,2.27-6.79h1.68v8.27
		H7.39V6.57z"/>
	<path d="M15.39,6.17h-3.7v2.87h4.07l-0.15,0.97h-5.04V1.74h4.99v0.98h-3.87v2.47h3.7V6.17z"/>
	<path d="M17.09,10.01V1.74h1.51c3.14,5.71,3.58,6.51,3.72,6.88h0.02c-0.08-1.08-0.09-2.42-0.09-3.76V1.74h1.08v8.27h-1.41
		c-3.36-6.2-3.63-6.75-3.79-7.09h-0.01c0.06,1.06,0.05,2.46,0.05,3.94v3.15H17.09z"/>
	<path d="M26.41,1.74v5.26c0,1.24,0.44,2.16,1.87,2.16c1.42,0,1.83-0.88,1.83-2.17V1.74h1.17v5.3c0,1.74-0.73,3.09-3.03,3.09
		c-2.17,0-3-1.15-3-3.04V1.74H26.41z"/>
</g>
<g>
	<rect x="36.02" y="1.69" width="11.02" height="1.64"/>
	<rect x="36.02" y="5.12" width="11.02" height="1.64"/>
	<rect x="36.02" y="8.55" width="11.02" height="1.64"/>
</g>
</svg>
