<?xml version="1.0" encoding="utf-8"?>
<!-- Generator: Adobe Illustrator 27.1.0, SVG Export Plug-In . SVG Version: 6.00 Build 0)  -->
<svg version="1.1" id="Capa_1" xmlns="http://www.w3.org/2000/svg" xmlns:xlink="http://www.w3.org/1999/xlink" x="0px" y="0px"
	 viewBox="0 0 100 100" style="enable-background:new 0 0 100 100;" xml:space="preserve">
<style type="text/css">
	.st0{fill:#FFFFFF;}
</style>
<g>
	<path class="st0" d="M35.65,2.9c3.81,0.04,7.64,1.62,9.98,5.87c2.06,3.73,4.13,7.46,6.04,11.27c1.77,3.54,0.8,7.61-2.32,10.16
		c-3.03,2.47-6.12,4.86-9.22,7.23c-2.64,2.01-3.42,4.87-2.25,7.98c2.8,7.47,7.26,13.8,13.05,19.22c2.82,2.64,6.12,3.08,9.8,2.08
		c4.25-1.16,8.51-2.33,12.84-3.1c3.76-0.67,7.3,0.43,9.96,3.28c3.19,3.43,6.26,6.98,9.22,10.62c2.99,3.67,2.59,8.75-1.01,12.04
		c-2.57,2.34-5.29,4.57-8.19,6.48c-3.82,2.52-8.19,3.34-12.75,2.99c-4.76-0.37-9.05-2.31-13.34-4.17
		c-7.63-3.3-13.92-8.46-19.73-14.29c-8.28-8.31-15.21-17.59-20.45-28.09c-2.89-5.81-5.54-11.73-6.62-18.21
		C10.2,31.51,9.64,28.77,9.33,26c-0.29-2.57,0.42-5.08,1.13-7.53c0.54-1.87,1.07-3.77,1.93-5.49c1.68-3.32,4.66-5.24,7.96-6.74
		C24.94,4.14,29.77,3.06,35.65,2.9z"/>
</g>
</svg>
