<?xml version="1.0" encoding="utf-8"?>
<!-- Generator: Adobe Illustrator 26.4.1, SVG Export Plug-In . SVG Version: 6.00 Build 0)  -->
<svg version="1.1" id="Capa_1" xmlns="http://www.w3.org/2000/svg" xmlns:xlink="http://www.w3.org/1999/xlink" x="0px" y="0px"
	 viewBox="0 0 100 100" style="enable-background:new 0 0 100 100;" xml:space="preserve">
<style type="text/css">
	.st0{fill:#E74D2A;}
</style>
<g>
	<path class="st0" d="M33.7,2c3.8,0,7.6,1.6,10,5.9c2.1,3.7,4.1,7.5,6,11.3c1.8,3.5,0.8,7.6-2.3,10.2c-3,2.5-6.1,4.9-9.2,7.2
		c-2.6,2-3.4,4.9-2.2,8c2.8,7.5,7.3,13.8,13,19.2c2.8,2.6,6.1,3.1,9.8,2.1c4.2-1.2,8.5-2.3,12.8-3.1c3.8-0.7,7.3,0.4,10,3.3
		c3.2,3.4,6.3,7,9.2,10.6c3,3.7,2.6,8.8-1,12c-2.6,2.3-5.3,4.6-8.2,6.5c-3.8,2.5-8.2,3.3-12.8,3c-4.8-0.4-9-2.3-13.3-4.2
		c-7.6-3.3-13.9-8.5-19.7-14.3c-8.3-8.3-15.2-17.6-20.5-28.1c-2.9-5.8-5.5-11.7-6.6-18.2c-0.5-2.8-1-5.5-1.3-8.3
		C7,22.6,7.7,20,8.5,17.6c0.5-1.9,1.1-3.8,1.9-5.5c1.7-3.3,4.7-5.2,8-6.7C22.9,3.3,27.8,2.2,33.7,2z"/>
</g>
</svg>
