<?xml version="1.0" encoding="utf-8"?>
<!-- Generator: Adobe Illustrator 26.4.1, SVG Export Plug-In . SVG Version: 6.00 Build 0)  -->
<svg version="1.1" id="Capa_1" xmlns="http://www.w3.org/2000/svg" xmlns:xlink="http://www.w3.org/1999/xlink" x="0px" y="0px"
	 viewBox="0 0 100 100" style="enable-background:new 0 0 100 100;" xml:space="preserve">
<g>
	<path d="M51.1,65.9h-2.1c-11.4,0-20.7-9.3-20.7-20.7v-24c0-11.4,9.3-20.7,20.7-20.7h2.1c11.4,0,20.7,9.3,20.7,20.7v24
		C71.8,56.6,62.5,65.9,51.1,65.9z M48.9,4.7c-9.1,0-16.4,7.4-16.4,16.4v24c0,9.1,7.4,16.4,16.4,16.4h2.1c9.1,0,16.4-7.4,16.4-16.4
		v-24c0-9.1-7.4-16.4-16.4-16.4H48.9z"/>
	<path d="M50,25.9L50,25.9c-1.3,0-2.4-1.1-2.4-2.4v-7.4c0-1.3,1.1-2.4,2.4-2.4l0,0c1.3,0,2.4,1.1,2.4,2.4v7.4
		C52.4,24.8,51.3,25.9,50,25.9z"/>
	<path d="M51,86.3c-0.6,0.6-1.6,0.6-2.3,0L39,76.5c-0.7-0.7-0.7-1.9,0-2.6s1.9-0.7,2.6,0l7.5,7.6c0.4,0.4,1.1,0.4,1.5,0l7.8-7.8
		c0.7-0.7,1.9-0.7,2.6,0s0.7,1.9,0,2.6L51,86.3z"/>
	<path d="M51,99.4c-0.6,0.6-1.6,0.6-2.3,0L39,89.6c-0.7-0.7-0.7-1.9,0-2.6s1.9-0.7,2.6,0l7.5,7.6c0.4,0.4,1.1,0.4,1.5,0l7.8-7.8
		c0.7-0.7,1.9-0.7,2.6,0s0.7,1.9,0,2.6L51,99.4z"/>
</g>
</svg>
