<?xml version="1.0" encoding="utf-8"?>
<!-- Generator: Adobe Illustrator 26.4.1, SVG Export Plug-In . SVG Version: 6.00 Build 0)  -->
<svg version="1.1" id="Capa_1" xmlns="http://www.w3.org/2000/svg" xmlns:xlink="http://www.w3.org/1999/xlink" x="0px" y="0px"
	 viewBox="0 0 100 100" style="enable-background:new 0 0 100 100;" xml:space="preserve">
<style type="text/css">
	.st0{fill:#FFFFFF;}
</style>
<g>
	<path class="st0" d="M51.07,65.88h-2.14c-11.43,0-20.73-9.3-20.73-20.73V21.17c0-11.43,9.3-20.73,20.73-20.73h2.14
		c11.43,0,20.73,9.3,20.73,20.73v23.98C71.8,56.58,62.5,65.88,51.07,65.88z M48.93,4.74c-9.06,0-16.43,7.37-16.43,16.43v23.98
		c0,9.06,7.37,16.43,16.43,16.43h2.14c9.06,0,16.43-7.37,16.43-16.43V21.17c0-9.06-7.37-16.43-16.43-16.43H48.93z"/>
	<path class="st0" d="M50,25.87L50,25.87c-1.31,0-2.37-1.06-2.37-2.37v-7.38c0-1.31,1.06-2.37,2.37-2.37h0
		c1.31,0,2.37,1.06,2.37,2.37v7.38C52.37,24.81,51.31,25.87,50,25.87z"/>
	<path class="st0" d="M50.98,86.29c-0.62,0.62-1.63,0.62-2.26,0l-9.77-9.77c-0.72-0.72-0.72-1.89,0-2.61c0.72-0.72,1.89-0.72,2.61,0
		l7.55,7.55c0.41,0.41,1.07,0.41,1.48,0l7.84-7.84c0.72-0.72,1.89-0.72,2.61,0c0.72,0.72,0.72,1.89,0,2.61L50.98,86.29z"/>
	<path class="st0" d="M50.98,99.39c-0.62,0.62-1.63,0.62-2.26,0l-9.77-9.77c-0.72-0.72-0.72-1.89,0-2.61c0.72-0.72,1.89-0.72,2.61,0
		l7.55,7.55c0.41,0.41,1.07,0.41,1.48,0l7.84-7.84c0.72-0.72,1.89-0.72,2.61,0c0.72,0.72,0.72,1.89,0,2.61L50.98,99.39z"/>
</g>
</svg>
