<?xml version="1.0" encoding="utf-8"?>
<!-- Generator: Adobe Illustrator 26.4.1, SVG Export Plug-In . SVG Version: 6.00 Build 0)  -->
<svg version="1.1" id="Capa_1" xmlns="http://www.w3.org/2000/svg" xmlns:xlink="http://www.w3.org/1999/xlink" x="0px" y="0px"
	 viewBox="0 0 100 100" style="enable-background:new 0 0 100 100;" xml:space="preserve">
<style type="text/css">
	.st0{fill:#010202;}
</style>
<g>
	<path class="st0" d="M20.6,60.68h4.57v12.34c-1.43,0.5-2.46,1.84-2.46,3.43c0,2.01,1.64,3.65,3.65,3.65s3.65-1.64,3.65-3.65
		c0-1.55-0.97-2.86-2.33-3.39V59.43c0-0.69-0.56-1.25-1.25-1.25H23l3.61-5.14l5.2,7.32c0.4,0.56,1.18,0.69,1.74,0.3
		c0.56-0.4,0.7-1.18,0.3-1.74l-6.22-8.76c-0.23-0.33-0.61-0.53-1.02-0.53c0,0,0,0,0,0c-0.41,0-0.79,0.2-1.02,0.53l-6.01,8.55
		c-0.27,0.38-0.3,0.88-0.09,1.29C19.7,60.42,20.13,60.68,20.6,60.68z M26.35,77.6c-0.63,0-1.15-0.51-1.15-1.15s0.51-1.15,1.15-1.15
		s1.15,0.51,1.15,1.15S26.98,77.6,26.35,77.6z"/>
	<path class="st0" d="M53.73,50.07h4.57V63.9c-1.43,0.5-2.46,1.84-2.46,3.43c0,2.01,1.64,3.65,3.65,3.65s3.65-1.64,3.65-3.65
		c0-1.55-0.97-2.86-2.33-3.39V48.82c0-0.69-0.56-1.25-1.25-1.25h-3.41l3.61-5.14l5.2,7.32c0.4,0.56,1.18,0.7,1.74,0.3
		c0.56-0.4,0.7-1.18,0.3-1.74l-6.22-8.76c-0.24-0.33-0.58-0.5-1.02-0.53c-0.41,0-0.79,0.2-1.02,0.53L52.7,48.1
		c-0.27,0.38-0.3,0.88-0.09,1.29C52.83,49.81,53.26,50.07,53.73,50.07z M59.48,68.48c-0.63,0-1.15-0.51-1.15-1.15
		s0.51-1.15,1.15-1.15s1.15,0.51,1.15,1.15S60.11,68.48,59.48,68.48z"/>
	<path class="st0" d="M76.63,33.42c8.84,0,16.04-7.19,16.04-16.04c0-8.84-7.19-16.04-16.04-16.04S60.59,8.54,60.59,17.38
		C60.59,26.22,67.78,33.42,76.63,33.42z M76.63,3.84c7.46,0,13.54,6.07,13.54,13.54c0,7.47-6.07,13.54-13.54,13.54
		s-13.54-6.07-13.54-13.54C63.09,9.92,69.16,3.84,76.63,3.84z"/>
	<path class="st0" d="M36.84,32.21h4.57v20.48c-1.43,0.5-2.46,1.84-2.46,3.43c0,2.01,1.64,3.65,3.65,3.65s3.65-1.64,3.65-3.65
		c0-1.55-0.97-2.86-2.33-3.39V30.96c0-0.69-0.56-1.25-1.25-1.25h-3.41l3.61-5.14l5.2,7.32c0.4,0.56,1.18,0.7,1.74,0.3
		c0.56-0.4,0.7-1.18,0.3-1.74l-6.22-8.76c-0.23-0.33-0.61-0.53-1.02-0.53c0,0,0,0,0,0c-0.41,0-0.79,0.2-1.02,0.53l-6.01,8.55
		c-0.27,0.38-0.3,0.88-0.09,1.29C35.95,31.95,36.37,32.21,36.84,32.21z M42.59,57.26c-0.63,0-1.15-0.51-1.15-1.15
		s0.51-1.15,1.15-1.15s1.15,0.51,1.15,1.15S43.23,57.26,42.59,57.26z"/>
	<path class="st0" d="M71.48,16.64c0.76,0.62,1.92,1.15,3.48,1.6v3.64c-0.63-0.04-1.37-0.17-2.24-0.4
		c-0.97-0.26-1.68-0.53-2.13-0.83v2.5c1.3,0.54,2.75,0.82,4.37,0.86v2h0.22h1.74h0.25v-2.08c1.43-0.14,2.56-0.52,3.39-1.12
		c0.88-0.64,1.32-1.48,1.32-2.5c0-0.94-0.39-1.71-1.18-2.32c-0.75-0.58-1.93-1.11-3.53-1.6v-3.78c1.32,0.12,2.5,0.43,3.56,0.94
		v-2.45c-0.81-0.34-2-0.54-3.56-0.61V8.75h-0.25h-1.74h-0.22v1.77c-1.32,0.11-2.42,0.5-3.29,1.17c-0.92,0.71-1.37,1.55-1.37,2.52
		C70.3,15.18,70.69,15.99,71.48,16.64z M77.17,18.92c1.05,0.41,1.57,0.91,1.57,1.52c0,0.74-0.52,1.2-1.57,1.38V18.92z M74.96,12.65
		v3.02c-1.02-0.45-1.54-0.98-1.54-1.61C73.42,13.31,73.94,12.84,74.96,12.65z"/>
	<path class="st0" d="M87.98,95.99h-5.17V41.11c0-0.69-0.56-1.25-1.25-1.25H70.61c-0.69,0-1.25,0.56-1.25,1.25v54.88h-3.25V75.88
		c0-0.69-0.56-1.25-1.25-1.25H53.91c-0.69,0-1.25,0.56-1.25,1.25v20.11h-2.98V63.56c0-0.69-0.56-1.25-1.25-1.25H37.48
		c-0.69,0-1.25,0.56-1.25,1.25v32.43h-2.9v-9.7c0-0.69-0.56-1.25-1.25-1.25H21.13c-0.69,0-1.25,0.56-1.25,1.25v9.7h-5.88
		c-0.69,0-1.25,0.56-1.25,1.25s0.56,1.25,1.25,1.25h7.13h10.95h5.4h10.95h5.48h10.95h5.75h10.95h6.42c0.69,0,1.25-0.56,1.25-1.25
		S88.67,95.99,87.98,95.99z M22.38,95.99v-8.45h8.45v8.45H22.38z M38.73,95.99V64.81h8.45v31.18H38.73z M55.16,95.99V77.13h8.45
		v18.86H55.16z M71.86,95.99V42.36h8.45v53.63H71.86z"/>
</g>
</svg>
